<?xml version="1.0" encoding="UTF-8"?>
<svg version="1.1" xmlns="http://www.w3.org/2000/svg" width="800" height="800">
<path d="M0 0 C264 0 528 0 800 0 C800 264 800 528 800 800 C536 800 272 800 0 800 C0 536 0 272 0 0 Z " fill="#F0E9DC" transform="translate(0,0)"/>
<path d="M0 0 C3.547959 1.58694408 6.77676969 3.62013662 10.0625 5.6875 C12.02579008 6.88582895 13.98933921 8.08373358 15.953125 9.28125 C16.95408203 9.89871094 17.95503906 10.51617187 18.98632812 11.15234375 C23.72596678 14.05817536 28.51985667 16.8702827 33.3125 19.6875 C35.14605172 20.77046367 36.97938899 21.85379052 38.8125 22.9375 C43.47654446 25.69196514 48.14343004 28.44156331 52.8125 31.1875 C53.50061768 31.59226563 54.18873535 31.99703125 54.89770508 32.4140625 C58.24645617 34.38321548 61.59664761 36.34985761 64.94921875 38.3125 C80.18239568 47.23846432 95.38055772 56.24017968 110.375 65.5625 C114.82100447 68.31619242 119.34272432 70.85097789 123.94921875 73.32421875 C129.93694149 76.61324955 135.80205868 80.11378699 141.66943359 83.61181641 C143.26958468 84.56493385 144.87157558 85.51496722 146.47509766 86.46240234 C148.94692178 87.92475021 151.41167001 89.39839809 153.875 90.875 C154.64207275 91.32705811 155.40914551 91.77911621 156.19946289 92.24487305 C156.91481201 92.67711182 157.63016113 93.10935059 158.3671875 93.5546875 C158.99737793 93.93093262 159.62756836 94.30717773 160.27685547 94.69482422 C162.94893299 96.71875825 164.76937272 98.41698877 165.27352369 101.87744951 C165.37967662 104.32727273 165.38502284 106.76064266 165.36076355 109.21270752 C165.36332682 110.15534226 165.3658901 111.097977 165.36853105 112.06917644 C165.37348197 115.2354179 165.35695421 118.40118509 165.34057617 121.56738281 C165.33973018 123.83395374 165.34020449 126.1005255 165.34190369 128.36709595 C165.34276616 134.52789131 165.32509942 140.68851226 165.30418181 146.84926701 C165.28545714 153.28481734 165.2836679 159.72037145 165.28010559 166.15594482 C165.27183381 176.96011746 165.25308164 187.76421841 165.22631836 198.56835938 C165.19878088 209.69661132 165.17754578 220.82484586 165.16479492 231.953125 C165.16400675 232.63908309 165.16321858 233.32504118 165.16240653 234.03178588 C165.15849141 237.47303962 165.15470029 240.91429348 165.15097082 244.35554743 C165.11987118 272.90374161 165.06680911 301.4518683 165 330 C165.69561035 329.97905273 166.3912207 329.95810547 167.10791016 329.93652344 C170.28012458 329.8530302 173.45210731 329.80123471 176.625 329.75 C177.71941406 329.71648437 178.81382812 329.68296875 179.94140625 329.6484375 C186.25899979 329.57186061 190.25623595 329.62861333 195 334 C196.60847182 337.21694364 196.61309149 340.52137222 196 344 C193.82425584 346.69105198 192.08934144 348.45532928 189 350 C186.89942004 350.0988545 184.79561606 350.13102881 182.69271374 350.13422108 C182.03512667 350.13657331 181.3775396 350.13892554 180.70002565 350.14134905 C178.4750649 350.14805756 176.2501623 350.14758027 174.02519226 350.14717102 C172.42248136 350.15046849 170.81977129 350.15419381 169.21706229 350.1583125 C164.7960206 350.16835383 160.37499248 350.17205271 155.95394099 350.17470181 C151.19241228 350.17859852 146.43089438 350.18817723 141.66937256 350.19691467 C130.1624841 350.21669629 118.65559474 350.22674711 107.14869353 350.23564246 C101.73450759 350.24002229 96.32032263 350.24538986 90.90613747 350.25063133 C72.91639121 350.26764475 54.92664558 350.28214022 36.93689251 350.28938007 C32.26627794 350.29129007 27.59566338 350.29321039 22.92504883 350.29516602 C21.18368894 350.29589163 21.18368894 350.29589163 19.40715007 350.2966319 C0.58979939 350.30493701 -18.22748781 350.33028156 -37.04481075 350.36274669 C-56.34890134 350.39578109 -75.65295962 350.41382552 -94.95707864 350.41702431 C-105.80184786 350.41919269 -116.64652451 350.42798922 -127.49126625 350.45348549 C-136.72473111 350.47514304 -145.95808092 350.48326733 -155.19156829 350.47351871 C-159.90508678 350.46895971 -164.61836764 350.47095271 -169.33185387 350.49028015 C-173.6442742 350.50781083 -177.95628177 350.50699691 -182.26870587 350.49138286 C-183.8313138 350.48899135 -185.39394956 350.49340965 -186.95651475 350.50521151 C-189.07657934 350.52023615 -191.19516347 350.51072587 -193.31519032 350.49498463 C-194.49389724 350.49596144 -195.67260416 350.49693824 -196.88702947 350.49794465 C-200.64701535 349.8965047 -202.30216603 348.63413864 -205 346 C-206.60847182 342.78305636 -206.61309149 339.47862778 -206 336 C-203.82425584 333.30894802 -202.08934144 331.54467072 -199 330 C-196.96767366 329.91472372 -194.93252994 329.89283865 -192.8984375 329.90234375 C-191.68671875 329.90556641 -190.475 329.90878906 -189.2265625 329.91210938 C-187.32003906 329.92467773 -187.32003906 329.92467773 -185.375 329.9375 C-184.09625 329.94201172 -182.8175 329.94652344 -181.5 329.95117188 C-178.33328708 329.96298797 -175.16666644 329.97946185 -172 330 C-172.00368717 328.81925054 -172.00737434 327.63850107 -172.01117325 326.42197132 C-172.09778744 298.39914852 -172.16375342 270.37633237 -172.20426132 242.35340448 C-172.2092642 238.90495497 -172.21444148 235.45650573 -172.21972656 232.00805664 C-172.2207758 231.3215268 -172.22182505 230.63499695 -172.22290608 229.92766317 C-172.24031568 218.8085716 -172.27185639 207.68956267 -172.30861118 196.57052014 C-172.34600526 185.16301946 -172.36793314 173.75558588 -172.37635398 162.34802216 C-172.38157582 155.93983645 -172.39387735 149.53183825 -172.42292023 143.12371254 C-172.45002263 137.09502848 -172.45845537 131.0666096 -172.45243073 125.03787041 C-172.45353327 122.82268967 -172.46151769 120.60750028 -172.4768219 118.39237213 C-172.4966684 115.37224072 -172.49195828 112.35311582 -172.48101807 109.33296204 C-172.49266943 108.45260814 -172.5043208 107.57225423 -172.51632524 106.66522294 C-172.47660992 102.62030264 -172.33274941 100.53180507 -170.14181137 97.03021526 C-167.6016289 94.62238547 -165.08529669 93.09510531 -162 91.4375 C-160.73567779 90.74325014 -159.47273536 90.04648359 -158.2109375 89.34765625 C-157.5312793 88.9727002 -156.85162109 88.59774414 -156.15136719 88.21142578 C-152.25783068 86.01899181 -148.44697937 83.68917044 -144.625 81.375 C-137.01840079 76.7855846 -129.36747684 72.277981 -121.6875 67.8125 C-114.53054601 63.65081159 -107.39178905 59.46517258 -100.30297852 55.18847656 C-92.90623913 50.72869304 -85.4497799 46.37037689 -78 42 C-75.37451742 40.45915366 -72.7495133 38.91749674 -70.125 37.375 C-69.4446167 36.97514893 -68.7642334 36.57529785 -68.06323242 36.16333008 C-62.50008002 32.89033688 -56.94856651 29.59790785 -51.39794922 26.30371094 C-50.24446627 25.61914042 -49.09098319 24.93457011 -47.9375 24.25 C-47.36694885 23.91133911 -46.79639771 23.57267822 -46.20855713 23.22375488 C-36.64242848 17.54726965 -27.04647739 11.92406748 -17.42553711 6.34082031 C-16.49104736 5.79780273 -15.55655762 5.25478516 -14.59375 4.6953125 C-13.77583984 4.22109863 -12.95792969 3.74688477 -12.11523438 3.25830078 C-5.50903104 -0.67156672 -5.50903104 -0.67156672 0 0 Z " fill="#4A5B4F" transform="translate(316,209)"/>
<path d="M0 0 C2.82155216 0.98649313 5.23288375 2.36458794 7.81860352 3.8659668 C8.91205078 4.49841309 10.00549805 5.13085938 11.13208008 5.7824707 C12.2998623 6.4650129 13.4675028 7.14779762 14.63500977 7.83081055 C15.83246989 8.52683679 17.03006142 9.222637 18.2277832 9.91821289 C24.83025453 13.76041518 31.38270808 17.66650413 37.86157227 21.71362305 C42.31472992 24.45643443 46.81722076 27.11223103 51.32250977 29.76831055 C52.2507959 30.31559814 53.17908203 30.86288574 54.13549805 31.42675781 C56.10921429 32.59005973 58.08301276 33.75322216 60.05688477 34.91625977 C65.64948193 38.21425744 71.23644428 41.52176527 76.82250977 44.83081055 C77.39726044 45.17118347 77.97201111 45.5115564 78.56417847 45.86224365 C85.85362541 50.17993276 93.12778891 54.52171299 100.38500977 58.89331055 C107.74791431 63.32513699 115.14960313 67.68775054 122.57250977 72.01831055 C123.52279053 72.57276855 124.47307129 73.12722656 125.45214844 73.69848633 C133.01040947 78.0977501 140.60379596 82.42904551 148.19750977 86.76831055 C148.19750977 160.02831055 148.19750977 233.28831055 148.19750977 308.76831055 C127.07750977 308.76831055 105.95750977 308.76831055 84.19750977 308.76831055 C84.14852539 299.8119043 84.09954102 290.85549805 84.04907227 281.62768555 C84.00916469 275.21632686 83.96804422 268.80498489 83.92517853 262.39364624 C83.86987524 254.09798347 83.81739038 245.80233501 83.77563477 237.5065918 C83.7425542 230.93617853 83.70263606 224.36584726 83.65471971 217.79552484 C83.62961324 214.32093983 83.60778653 210.8464081 83.5941658 207.37175751 C83.57878158 203.48008068 83.54812249 199.58860061 83.51635742 195.69702148 C83.51419724 194.56197174 83.51203705 193.426922 83.5098114 192.25747681 C83.30821782 172.81447108 77.66332562 155.49149248 64.76000977 140.70581055 C62.19750977 137.76831055 62.19750977 137.76831055 62.19750977 135.76831055 C61.60711914 135.50276367 61.01672852 135.2372168 60.40844727 134.96362305 C58.14034924 133.73740751 56.66398879 132.43479467 54.82250977 130.64331055 C36.00164655 113.94066256 13.07624373 110.66740099 -11.13452148 111.49438477 C-18.92085539 112.07587216 -25.80752224 114.40242647 -32.80249023 117.76831055 C-33.8969043 118.29424805 -34.99131836 118.82018555 -36.11889648 119.36206055 C-40.02601959 121.40146435 -43.71901933 123.6720558 -47.36499023 126.14331055 C-49.80249023 127.76831055 -49.80249023 127.76831055 -51.80249023 127.76831055 C-51.80249023 128.42831055 -51.80249023 129.08831055 -51.80249023 129.76831055 C-53.27124023 131.1784668 -53.27124023 131.1784668 -55.30249023 132.83081055 C-71.2964145 146.57206942 -80.59325561 165.04158553 -82.59519768 185.95754623 C-82.96054279 190.91140963 -82.98127192 195.86193567 -83.0078125 200.82739258 C-83.0177121 201.98952774 -83.02761169 203.1516629 -83.03781128 204.34901428 C-83.06918599 208.15803041 -83.09408792 211.96705898 -83.11889648 215.77612305 C-83.13948681 218.42984416 -83.16043868 221.08355997 -83.18186951 223.73727417 C-83.23156014 229.98783554 -83.27658547 236.23842126 -83.31989187 242.48902977 C-83.37434046 250.31132249 -83.43509274 258.13356471 -83.49584961 265.95581055 C-83.60407694 279.89327155 -83.70284558 293.83077968 -83.80249023 307.76831055 C-105.25249023 307.76831055 -126.70249023 307.76831055 -148.80249023 307.76831055 C-148.80249023 234.83831055 -148.80249023 161.90831055 -148.80249023 86.76831055 C-145.17249023 84.78831055 -141.54249023 82.80831055 -137.80249023 80.76831055 C-134.02611763 78.52596536 -134.02611763 78.52596536 -130.26391602 76.26000977 C-127.81705012 74.77713428 -125.35768826 73.31786782 -122.89233398 71.8659668 C-122.0610498 71.37620361 -121.22976562 70.88644043 -120.37329102 70.38183594 C-119.50430176 69.86999756 -118.6353125 69.35815918 -117.73999023 68.83081055 C-109.61152301 64.03736673 -101.51212988 59.19775856 -93.42749023 54.33081055 C-84.15510545 48.75129874 -74.83231193 43.26560289 -65.4753418 37.8293457 C-58.36527709 33.69370879 -51.29866708 29.49127308 -44.25415039 25.24511719 C-37.05121382 20.90614687 -29.81331644 16.6277526 -22.56030273 12.37304688 C-18.55632991 10.01783229 -14.57239123 7.6495922 -10.66577148 5.13549805 C-10.06498779 4.75103516 -9.4642041 4.36657227 -8.84521484 3.97045898 C-7.31068714 2.97933964 -5.78652696 1.97221691 -4.26342773 0.96362305 C-1.80249023 -0.23168945 -1.80249023 -0.23168945 0 0 Z " fill="#F0E9DB" transform="translate(312.802490234375,231.231689453125)"/>
<path d="M0 0 C14.50299548 5.68775531 26.86751663 31.48993399 32.77563477 44.66064453 C39.24974144 59.76156934 43.92876052 76.31939712 44.04125977 92.80053711 C44.08904681 94.2055436 44.13863324 95.61048965 44.18969727 97.01538086 C45.0710301 128.90644428 33.77919617 159.68141542 13.04125977 183.80053711 C12.33874084 184.41684998 11.63622192 185.03316284 10.91241455 185.66815186 C8.62519359 188.27468996 8.55261506 189.42471145 8.5871582 192.84448242 C8.58746033 193.8452179 8.58776245 194.84595337 8.58807373 195.87701416 C8.60871887 196.95005798 8.62936401 198.02310181 8.65063477 199.12866211 C8.65629456 200.23280457 8.66195435 201.33694702 8.66778564 202.47454834 C8.69017209 206.00031937 8.7403748 209.52507335 8.79125977 213.05053711 C8.81132174 215.44114743 8.82957303 217.83177368 8.84594727 220.22241211 C8.89004433 226.08213398 8.95697978 231.94126289 9.04125977 237.80053711 C11.0766322 234.74747846 11.43738467 233.35250332 11.93579102 229.82006836 C12.08371094 228.8287793 12.23163086 227.83749023 12.3840332 226.81616211 C12.53904297 225.75913086 12.69405273 224.70209961 12.85375977 223.61303711 C17.66261158 193.26223503 31.32020679 165.52590776 56.47875977 146.86303711 C65.79050624 140.19805271 75.96046124 134.84400595 87.04125977 131.80053711 C88.08733398 131.4950293 88.08733398 131.4950293 89.15454102 131.18334961 C93.18239744 130.07587873 96.87275419 129.31582716 101.04125977 129.80053711 C103.07793591 131.34560177 103.90199055 132.52199867 105.04125977 134.80053711 C106.51502349 164.51572663 97.77728991 191.99960339 78.04467773 214.52832031 C63.89877946 230.14994195 46.93766837 240.27333977 27.04125977 246.80053711 C26.05125977 246.80053711 25.06125977 246.80053711 24.04125977 246.80053711 C23.69901367 247.88141602 23.69901367 247.88141602 23.34985352 248.98413086 C21.77477428 252.37407751 19.80769749 254.29409774 17.10375977 256.86303711 C11.08369944 262.16202828 11.08369944 262.16202828 8.64253235 269.43255615 C8.61616517 270.91277153 8.60609758 272.39333173 8.60888672 273.8737793 C8.59869507 274.68390976 8.58850342 275.49404022 8.57800293 276.32872009 C8.54785198 279.00168759 8.53860387 281.67429684 8.52954102 284.34741211 C8.51269587 286.20258782 8.49454585 288.0577521 8.47514343 289.91290283 C8.42761941 294.79217967 8.39782558 299.67141018 8.3717041 304.55084229 C8.34191072 309.53130238 8.29537619 314.51160282 8.25024414 319.49194336 C8.16418368 329.26139114 8.09685056 339.03087176 8.04125977 348.80053711 C8.65656052 348.78721344 9.27186127 348.77388977 9.9058075 348.76016235 C16.3132943 348.62736049 22.72038996 348.53690112 29.12890625 348.47094727 C31.52001831 348.44078471 33.91101983 348.3998481 36.30175781 348.34790039 C39.7399421 348.27506658 43.17666325 348.24107438 46.61547852 348.21459961 C47.68336105 348.1836319 48.75124359 348.15266418 49.85148621 348.12075806 C57.07271044 348.11748766 57.07271044 348.11748766 59.83926392 350.06854248 C62.02177236 352.56122555 63.0064538 354.61103796 63.60375977 357.86303711 C62.91146616 361.47834819 61.58534944 363.18162127 59.04125977 365.80053711 C56.04475802 367.29878798 52.97101874 366.94148129 49.68481636 366.93475819 C48.91380866 366.93711042 48.14280095 366.93946265 47.34842938 366.94188616 C44.73765366 366.94859887 42.12692745 366.94811725 39.5161438 366.94770813 C37.63635872 366.95100533 35.75657434 366.95473059 33.87679088 366.95884961 C28.68991331 366.96889388 23.50304731 366.97259028 18.31616139 366.97523892 C12.7305141 366.97913473 7.14487604 366.98871346 1.55923462 366.99745178 C-11.93950938 367.01723536 -25.43825416 367.02728421 -38.93700904 367.03617957 C-45.28725178 367.04055885 -51.63749367 367.04592654 -57.98773575 367.05116844 C-79.08542393 367.06818162 -100.18311174 367.08270245 -121.28080559 367.08991718 C-122.64560785 367.09039194 -124.01041012 367.09086783 -125.37521238 367.09134484 C-126.05204551 367.09158122 -126.72887864 367.0918176 -127.42622186 367.09206114 C-130.85551836 367.09326236 -134.28481484 367.0944778 -137.71411133 367.09570312 C-138.39467079 367.09594327 -139.07523025 367.09618342 -139.77641272 367.09643085 C-161.85193831 367.10432738 -183.92741023 367.12776643 -206.00291238 367.16025907 C-229.33017683 367.19453163 -252.65740543 367.21426472 -275.98469937 367.21756142 C-288.70570358 367.21973067 -301.4266289 367.22853982 -314.14760971 367.2540226 C-324.97749473 367.27566653 -335.80728172 367.28381118 -346.63718592 367.27405582 C-352.16674959 367.26949293 -357.69611072 367.27151227 -363.22564697 367.29081726 C-368.28248184 367.30832017 -373.33896446 367.30755684 -378.39580239 367.29191997 C-380.23026079 367.2895242 -382.06474277 367.2939682 -383.8991649 367.30574862 C-386.3834166 367.32072058 -388.86639623 367.3112985 -391.35061455 367.29552174 C-392.07111632 367.30574394 -392.79161809 367.31596615 -393.53395325 367.32649812 C-396.94068338 367.27892847 -398.66169783 367.0351588 -401.37174809 364.89460057 C-404.23654772 361.11444813 -404.44174431 358.55007718 -403.95874023 353.80053711 C-401.42853438 350.56668038 -399.9242338 348.99339374 -395.8498804 348.17954463 C-394.67312709 348.18144323 -393.49637379 348.18334183 -392.2839613 348.18529797 C-391.62310308 348.17952874 -390.96224487 348.17375952 -390.28136066 348.16781548 C-388.06276931 348.15456063 -385.84598581 348.17702219 -383.62748718 348.19926453 C-382.02274504 348.19708439 -380.41800463 348.19270692 -378.81327373 348.1863187 C-374.40053236 348.1751243 -369.98839633 348.19515744 -365.57573211 348.220209 C-360.81844774 348.24177473 -356.06119828 348.23449633 -351.30387878 348.23069763 C-343.06052735 348.22807418 -334.81737359 348.24377925 -326.57407188 348.27188683 C-314.65563367 348.31249927 -302.73729116 348.32554174 -290.81879125 348.33182678 C-271.48249282 348.3427735 -252.14629979 348.37605797 -232.81005859 348.42333984 C-214.02523323 348.46922564 -195.24043648 348.50462236 -176.45556641 348.52587891 C-174.71910541 348.52784933 -174.71910541 348.52784933 -172.94756439 348.52985957 C-167.14009809 348.53638469 -161.33263159 348.54270324 -155.52516496 348.54891908 C-107.33628388 348.60076385 -59.14751719 348.68883945 -10.95874023 348.80053711 C-10.83212009 328.03317872 -10.76882834 307.26647476 -10.77995777 286.4987154 C-10.78366573 276.85474932 -10.76701829 267.21163687 -10.70166016 257.56787109 C-10.64471455 249.15764832 -10.62676726 240.7483778 -10.65473384 232.33799332 C-10.66819185 227.88846639 -10.66274467 223.44085238 -10.61051369 218.99157143 C-10.56185417 214.7938594 -10.56577761 210.5993181 -10.6081543 206.40156937 C-10.61468841 204.8702242 -10.60283548 203.33865889 -10.5701046 201.80764961 C-10.37803083 192.20393604 -12.06891444 186.11649526 -18.72944146 179.18217784 C-19.68366215 178.21912768 -20.63901771 177.25720054 -21.59556043 176.29645669 C-42.57376631 153.27549573 -47.08464596 118.46160706 -45.95874023 88.80053711 C-44.26086031 57.79924712 -27.54546261 22.42583831 -4.64624023 1.55053711 C-1.95874023 -0.19946289 -1.95874023 -0.19946289 0 0 Z " fill="#495A4E" transform="translate(584.958740234375,227.199462890625)"/>
<path d="M0 0 C14.66207109 10.26739118 24.96329381 24.84367129 28.63261414 42.52829742 C30.14289594 52.68918764 29.47314605 63.25266067 29.390625 73.4921875 C29.38473381 75.94018184 29.3806593 78.38818124 29.37841797 80.83618164 C29.35756298 89.84919862 29.30171801 98.86210728 29.25 107.875 C29.1675 128.04625 29.085 148.2175 29 169 C-13.57 169 -56.14 169 -100 169 C-100.0825 149.014375 -100.165 129.02875 -100.25 108.4375 C-100.28641602 102.15259521 -100.32283203 95.86769043 -100.36035156 89.39233398 C-100.37841797 81.65246582 -100.37841797 81.65246582 -100.3817749 78.01649475 C-100.38787308 75.50462501 -100.40184872 72.99276616 -100.42230225 70.48097229 C-100.59821969 47.71780352 -99.0947339 27.70420729 -83 10 C-60.6528129 -12.68001754 -27.04329749 -16.67917661 0 0 Z " fill="#EFE8DB" transform="translate(349,371)"/>
<path d="M0 0 C3.95390802 1.31796934 5.13545551 3.74787891 7.25 7.125 C7.84216309 8.06617676 7.84216309 8.06617676 8.44628906 9.02636719 C16.01571266 21.32438955 20.72094368 33.95768785 24 48 C24.28037109 49.16414429 24.28037109 49.16414429 24.56640625 50.35180664 C29.89781871 74.26461959 25.95748732 103.85201522 13.1875 125 C12.465625 125.99 11.74375 126.98 11 128 C10.67 128 10.34 128 10 128 C10.00112793 126.96593018 10.00225586 125.93186035 10.00341797 124.86645508 C9.99973754 121.01743153 9.95686417 117.16965643 9.90234375 113.32104492 C9.88421305 111.65771543 9.87660996 109.99423563 9.87988281 108.33081055 C9.8827487 105.93420827 9.8473523 103.54070338 9.8046875 101.14453125 C9.81378143 100.4047554 9.82287537 99.66497955 9.83224487 98.90278625 C9.75197009 96.02964721 9.5449033 93.69620089 7.73834229 91.38803101 C4.84653169 88.81615796 3.28089077 88.00968589 -0.625 87.875 C-4.72477767 89.24159256 -5.72797179 90.3627512 -8 94 C-8.40989739 96.76974045 -8.60463888 99.15842912 -8.609375 101.92578125 C-8.62591125 102.67337204 -8.64244751 103.42096283 -8.65948486 104.19120789 C-8.70783923 106.56505652 -8.72930636 108.93826522 -8.75 111.3125 C-8.77817043 112.92776635 -8.80809937 114.54300306 -8.83984375 116.15820312 C-8.91359395 120.10541602 -8.96324457 124.05227631 -9 128 C-20.83159844 116.98851585 -24.30301432 92.27699244 -25 77 C-25.22370553 64.17840555 -23.81672154 52.22908738 -20 40 C-19.49339844 38.30230469 -19.49339844 38.30230469 -18.9765625 36.5703125 C-14.7357521 23.5471146 -8.18269433 10.97357757 0 0 Z " fill="#EFE9DD" transform="translate(583,256)"/>
<path d="M0 0 C2.95908415 8.28948916 -2.27992878 19.96466026 -5.4296875 27.70703125 C-14.75575383 47.26393153 -31.00531804 64.2843694 -51 73 C-51.66 73 -52.32 73 -53 73 C-53.26744564 67.98146132 -52.31389818 63.64030801 -50.875 58.875 C-50.64981689 58.12581299 -50.42463379 57.37662598 -50.19262695 56.60473633 C-42.74783746 32.76456539 -27.05536616 14.28207441 -5.3359375 2.5625 C-3.57738776 1.66769024 -1.79255588 0.82457571 0 0 Z " fill="#EEE9DD" transform="translate(670,379)"/>
<path d="M0 0 C0 0.99 0 1.98 0 3 C-0.96086759 2.99750431 -1.92173519 2.99500862 -2.91171998 2.9924373 C-59.82033487 2.84471614 -116.72896115 2.70232506 -173.63760633 2.5667524 C-180.46584247 2.55048422 -187.29407849 2.53416631 -194.12231445 2.51782227 C-194.80181408 2.51619666 -195.48131371 2.51457106 -196.18140424 2.5128962 C-218.21478609 2.4601613 -240.24815811 2.40414117 -262.28152742 2.34642143 C-285.56086411 2.2854555 -308.84020711 2.22822439 -332.11956292 2.17494446 C-346.0693335 2.14289623 -360.01908996 2.10784413 -373.96884326 2.06898809 C-383.52580481 2.04265285 -393.08277058 2.02001722 -402.63974812 2.00032883 C-408.15922961 1.98884767 -413.67869429 1.97569903 -419.19816017 1.95816994 C-424.24698979 1.94217141 -429.2958075 1.93079773 -434.3446565 1.92316891 C-436.17515492 1.91957471 -438.00565089 1.91425438 -439.83613875 1.90707164 C-442.31706196 1.89758422 -444.79791826 1.89428294 -447.27885723 1.89256954 C-447.99569934 1.88833818 -448.71254145 1.88410682 -449.45110604 1.87974724 C-453.09553808 1.88421805 -456.45587115 2.13341779 -460 3 C-460.33 2.01 -460.66 1.02 -461 0 C-403.13783381 -0.15034654 -345.27565632 -0.29537814 -287.413459 -0.4332476 C-280.58651163 -0.44951568 -273.75956438 -0.46583361 -266.93261719 -0.48217773 C-265.91356388 -0.48461614 -265.91356388 -0.48461614 -264.87392364 -0.4871038 C-242.84753154 -0.53983218 -220.82114932 -0.59585305 -198.7947698 -0.65357857 C-175.52136355 -0.71455436 -152.24795099 -0.77178439 -128.97452557 -0.82505554 C-115.02936429 -0.85709633 -101.08421717 -0.89214612 -87.13907321 -0.93101191 C-77.58397331 -0.95735655 -68.02886918 -0.97998929 -58.47375326 -0.99967117 C-52.95617309 -1.01114704 -47.43860981 -1.02429004 -41.9210453 -1.04183006 C-36.87278016 -1.05784218 -31.82452697 -1.0692083 -26.77624239 -1.07683109 C-24.94707206 -1.08042185 -23.11790416 -1.08573855 -21.28874443 -1.09292836 C-18.80720947 -1.10243341 -16.3257414 -1.10571919 -13.8441906 -1.10743046 C-13.1299755 -1.11166182 -12.41576041 -1.11589318 -11.67990243 -1.12025276 C-7.681912 -1.11536478 -3.92283737 -0.77102833 0 0 Z " fill="#FCFCF0" transform="translate(646,595)"/>
<path d="M0 0 C0.66 0 1.32 0 2 0 C2 72.6 2 145.2 2 220 C-18.46 220 -38.92 220 -60 220 C-60.29107747 188.23225281 -60.29107747 188.23225281 -60.40429688 174.953125 C-60.48262049 165.77243167 -60.56201598 156.59175623 -60.64819336 147.41113281 C-60.71094196 140.72590578 -60.77014647 134.04065848 -60.82505554 127.3553623 C-60.85426709 123.8139921 -60.88528013 120.27265794 -60.92053413 116.73134232 C-60.95977696 112.78268534 -60.99110885 108.83398766 -61.02172852 104.88525391 C-61.03467453 103.70490067 -61.04762054 102.52454742 -61.06095886 101.3084259 C-61.06799835 100.23707901 -61.07503784 99.16573212 -61.08229065 98.06192017 C-61.09058679 97.12722208 -61.09888292 96.19252399 -61.10743046 95.22950172 C-61 93 -61 93 -60 91 C-59.34 91.33 -58.68 91.66 -58 92 C-58 133.58 -58 175.16 -58 218 C-29.785 217.505 -29.785 217.505 -1 217 C-0.67 145.39 -0.34 73.78 0 0 Z " fill="#F9FBEE" transform="translate(458,319)"/>
<path d="M0 0 C-2 2 -2 2 -4.71061623 2.24839699 C-6.45922835 2.24725783 -6.45922835 2.24725783 -8.24316597 2.24609566 C-9.21913075 2.24955719 -9.21913075 2.24955719 -10.21481198 2.25308865 C-12.4161865 2.25842324 -14.61727411 2.24937623 -16.81863403 2.24050903 C-18.40428418 2.2413804 -19.98993406 2.24313009 -21.57558239 2.24568737 C-25.94930455 2.25017855 -30.32292953 2.24213303 -34.6966393 2.23213124 C-39.40694132 2.22352442 -44.1172375 2.22641493 -48.82754517 2.22793579 C-56.99394157 2.2289864 -65.1603061 2.22269145 -73.32669449 2.21146011 C-85.13403484 2.19523187 -96.94135973 2.18999986 -108.74871002 2.18748413 C-127.90360839 2.18310281 -147.05848977 2.16978189 -166.21337891 2.15087891 C-184.82470616 2.13253139 -203.43602881 2.11836937 -222.04736328 2.10986328 C-223.76708456 2.10907511 -223.76708456 2.10907511 -225.52154769 2.10827102 C-231.27288975 2.10566101 -237.02423185 2.10313358 -242.77557397 2.10064721 C-290.51706106 2.07990112 -338.2585297 2.04466374 -386 2 C-386 1.34 -386 0.68 -386 0 C-337.40356145 -0.15032774 -288.80710959 -0.29535707 -240.21063407 -0.4332476 C-234.47766219 -0.44951923 -228.74469043 -0.46583488 -223.01171875 -0.48217773 C-221.87035315 -0.48543066 -220.72898755 -0.48868358 -219.55303511 -0.49203508 C-201.05499613 -0.54486008 -182.55696966 -0.60125356 -164.05894533 -0.6589582 C-145.08828781 -0.71805808 -126.11762196 -0.77334079 -107.14694285 -0.82505554 C-95.43435194 -0.85710553 -83.72177781 -0.89215818 -72.00920746 -0.93101191 C-63.98519475 -0.95734493 -55.961177 -0.97998123 -47.93714526 -0.99967117 C-43.30282707 -1.01115358 -38.66852889 -1.02430355 -34.03422928 -1.04183006 C-29.79532089 -1.05782539 -25.55642666 -1.06920083 -21.3174952 -1.07683109 C-19.78041692 -1.08042611 -18.24334156 -1.08574729 -16.70627585 -1.09292836 C-14.62350587 -1.10241166 -12.54081561 -1.10571655 -10.45802689 -1.10743046 C-9.29912044 -1.11084794 -8.14021399 -1.11426542 -6.94618917 -1.11778647 C-4.4390345 -1.01755228 -2.38421286 -0.73673109 0 0 Z " fill="#F8F6EC" transform="translate(506,560)"/>
<path d="M0 0 C0.99 0.33 1.98 0.66 3 1 C5.35828584 6.00012488 5.27736959 10.82135789 5.24050903 16.22543335 C5.24221788 17.14527563 5.24392673 18.06511791 5.24568737 19.01283419 C5.24897718 22.08985325 5.23798684 25.16665343 5.22705078 28.24365234 C5.22648656 30.45140579 5.22680344 32.65915961 5.22793579 34.86691284 C5.22850987 40.85813487 5.21674654 46.8492769 5.20278788 52.84048033 C5.19028977 59.10252191 5.18911074 65.3645653 5.18673706 71.62661743 C5.18122611 82.13634533 5.16873161 92.64604848 5.15087891 103.15576172 C5.13251221 113.97932794 5.11835957 124.80288618 5.10986328 135.62646484 C5.10933783 136.29397551 5.10881239 136.96148618 5.10827102 137.64922445 C5.10566088 140.99803255 5.10313348 144.34684071 5.10064721 147.69564891 C5.07973917 175.46378638 5.04455798 203.23189112 5 231 C5.64026123 231.01458252 6.28052246 231.02916504 6.94018555 231.04418945 C9.85654831 231.11891382 12.77179687 231.21549293 15.6875 231.3125 C17.19860352 231.34633789 17.19860352 231.34633789 18.74023438 231.38085938 C28.2109032 231.72467904 28.2109032 231.72467904 32 235 C32.8125 237.1875 32.8125 237.1875 33 239 C32.10152344 238.35546875 31.20304687 237.7109375 30.27734375 237.046875 C25.02011699 234.04274542 19.47674226 234.32721859 13.5625 234.25 C12.44939453 234.22035156 11.33628906 234.19070313 10.18945312 234.16015625 C7.45956428 234.08985868 4.73050961 234.03696337 2 234 C1.99576806 232.81832874 1.99153612 231.63665749 1.98717594 230.41917801 C1.88654017 202.38020995 1.78083849 174.34126433 1.66888306 146.30233915 C1.65511318 142.85260125 1.64138613 139.40286318 1.62768555 135.953125 C1.62495724 135.26633284 1.62222894 134.57954069 1.61941796 133.87193665 C1.57532102 122.74575615 1.53469492 111.61956554 1.49534739 100.49336734 C1.45490792 89.0802069 1.41067454 77.66706699 1.36312145 66.25393367 C1.33652654 59.84195597 1.31167356 53.42998199 1.29092598 47.01798248 C1.27135677 40.98688659 1.24721205 34.95582658 1.21950912 28.92476273 C1.21014021 26.70757066 1.20246436 24.49037071 1.19658089 22.27316666 C1.18831705 19.25297409 1.17403945 16.23286855 1.15821838 13.21270752 C1.15724028 12.32944078 1.15626217 11.44617404 1.15525442 10.53614163 C1.14977998 9.72699646 1.14430554 8.91785128 1.1386652 8.08418655 C1.13600716 7.38702003 1.13334911 6.6898535 1.13061053 5.97156072 C0.99215032 3.88150946 0.56681508 2.01277576 0 0 Z " fill="#F5F5EC" transform="translate(479,305)"/>
<path d="M0 0 C0.66 0 1.32 0 2 0 C2 40.92 2 81.84 2 124 C-19.12 124 -40.24 124 -62 124 C-62 123.34 -62 122.68 -62 122 C-58.84068328 120.94689443 -56.73844229 120.91248128 -53.42700195 120.97827148 C-52.28604568 120.99836777 -51.14508942 121.01846405 -49.96955872 121.03916931 C-48.73823715 121.06620438 -47.50691559 121.09323944 -46.23828125 121.12109375 C-44.97735153 121.14470474 -43.71642181 121.16831573 -42.4172821 121.19264221 C-39.06841368 121.25629206 -35.71970065 121.32449657 -32.37097168 121.39489746 C-28.95246614 121.46564753 -25.533848 121.53042452 -22.11523438 121.59570312 C-15.41003865 121.72495634 -8.70498397 121.8602144 -2 122 C-2.00523682 121.08935791 -2.01047363 120.17871582 -2.01586914 119.24047852 C-2.18272378 85.83364427 -2.18272378 85.83364427 -1 72 C-1.33 72 -1.66 72 -2 72 C-2 62.1 -2 52.2 -2 42 C-1.34 42 -0.68 42 0 42 C0 28.14 0 14.28 0 0 Z " fill="#F1F1E5" transform="translate(227,415)"/>
<path d="M0 0 C0.33 0 0.66 0 1 0 C1 40.26 1 80.52 1 122 C-39.92 122 -80.84 122 -123 122 C-123 121.34 -123 120.68 -123 120 C-120.0704293 119.02347643 -118.20884152 118.87650495 -115.15950012 118.87974548 C-114.16250595 118.87837082 -113.16551178 118.87699615 -112.13830566 118.87557983 C-111.04570435 118.87917511 -109.95310303 118.88277039 -108.82739258 118.88647461 C-107.67603317 118.88632858 -106.52467377 118.88618256 -105.33842468 118.8860321 C-101.52377453 118.88673009 -97.7091729 118.89451721 -93.89453125 118.90234375 C-91.25323005 118.90420833 -88.6119285 118.90563205 -85.97062683 118.90663147 C-79.72334171 118.90974052 -73.47607408 118.91794818 -67.22879666 118.92798096 C-60.11641019 118.9391553 -53.00402288 118.94465588 -45.89162982 118.94967639 C-31.26107752 118.96013114 -16.63053901 118.97772236 -2 119 C-1.99576806 118.41100796 -1.99153612 117.82201591 -1.98717594 117.21517563 C-1.88388022 102.88501734 -1.77524405 88.5549069 -1.66066074 74.22483444 C-1.60537802 67.29492619 -1.55190419 60.36501279 -1.50268555 53.43505859 C-1.45520219 46.75014597 -1.4026822 40.06529042 -1.34705925 33.38043976 C-1.32664305 30.82712336 -1.30792876 28.27379277 -1.29092598 25.72045135 C-1.26686588 22.15049604 -1.2368132 18.58063859 -1.20532227 15.01074219 C-1.1995668 13.94978836 -1.19381134 12.88883453 -1.18788147 11.79573059 C-1.17809265 10.82260422 -1.16830383 9.84947784 -1.15821838 8.84686279 C-1.15176583 8.00250042 -1.14531328 7.15813805 -1.1386652 6.28818893 C-1.00422366 4.0696969 -0.61531691 2.13061078 0 0 Z " fill="#F8F9ED" transform="translate(376,417)"/>
<path d="M0 0 C0.99 0 1.98 0 3 0 C3 37.95 3 75.9 3 115 C2.01 115 1.02 115 0 115 C0 77.05 0 39.1 0 0 Z " fill="#F0F3E8" transform="translate(249,424)"/>
<path d="M0 0 C1.0625 1.875 1.0625 1.875 2 4 C1.67 4.66 1.34 5.32 1 6 C0.89168448 8.99804714 0.84508055 11.97348714 0.84178162 14.97219849 C0.83684364 15.91312438 0.83190566 16.85405027 0.82681805 17.82348907 C0.81138474 20.9957682 0.80306669 24.16802701 0.79467773 27.34033203 C0.78510379 29.60660991 0.775094 31.87288599 0.76467896 34.13916016 C0.7375714 40.30825497 0.71659358 46.47735747 0.69667697 52.64647913 C0.67485341 59.08740305 0.64744701 65.52830309 0.62062073 71.96920776 C0.57632919 82.78528855 0.53550228 93.60137659 0.49731445 104.41748047 C0.45796678 115.55941728 0.41654231 126.70134317 0.37231445 137.84326172 C0.36959018 138.52974525 0.36686591 139.21622879 0.36405908 139.92351486 C0.35037972 143.36731011 0.33665943 146.81110521 0.32291877 150.25490022 C0.2089316 178.83657727 0.10220076 207.41827851 0 236 C-0.80219971 236.01981934 -1.60439941 236.03963867 -2.4309082 236.06005859 C-6.05844177 236.15519495 -9.68539045 236.2649208 -13.3125 236.375 C-15.20645508 236.42140625 -15.20645508 236.42140625 -17.13867188 236.46875 C-18.34716797 236.50742187 -19.55566406 236.54609375 -20.80078125 236.5859375 C-21.91622314 236.6173584 -23.03166504 236.6487793 -24.1809082 236.68115234 C-27.20368786 236.805249 -27.20368786 236.805249 -30 239 C-30.99 239 -31.98 239 -33 239 C-32 236 -32 236 -30.31738281 234.83837891 C-27.44052293 233.79759332 -24.98011779 233.67588582 -21.921875 233.5859375 C-20.76171875 233.54726563 -19.6015625 233.50859375 -18.40625 233.46875 C-16.59640625 233.42234375 -16.59640625 233.42234375 -14.75 233.375 C-13.52796875 233.33632813 -12.3059375 233.29765625 -11.046875 233.2578125 C-8.0314006 233.16357892 -5.01593172 233.07796545 -2 233 C-1.99576806 231.81133142 -1.99153612 230.62266285 -1.98717594 229.39797401 C-1.88658018 201.20463627 -1.78088627 173.01132099 -1.66888306 144.81802622 C-1.65511288 141.35068951 -1.64138587 137.88335262 -1.62768555 134.41601562 C-1.62495724 133.72570823 -1.62222894 133.03540084 -1.61941796 132.32417504 C-1.57529883 121.13521143 -1.53468041 109.94623769 -1.49534739 98.75725634 C-1.45493421 87.28308484 -1.41070415 75.80893394 -1.36312145 64.33478963 C-1.3365051 57.88710521 -1.31165167 51.43942457 -1.29092598 44.99171829 C-1.27138481 38.92943906 -1.24724866 32.8671959 -1.21950912 26.80494881 C-1.21012531 24.57401622 -1.20245485 22.34307571 -1.19658089 20.11213112 C-1.18834227 17.0781016 -1.17407199 14.04416019 -1.15821838 11.01016235 C-1.15724028 10.11717898 -1.15626217 9.22419561 -1.15525442 8.30415213 C-1.11412121 2.22824242 -1.11412121 2.22824242 0 0 Z " fill="#FEFEF4" transform="translate(144,303)"/>
<path d="M0 0 C1.75708534 -0.00472824 1.75708534 -0.00472824 3.54966736 -0.009552 C4.8204866 -0.00752777 6.09130585 -0.00550354 7.40063477 -0.00341797 C8.7002565 -0.00437469 9.99987823 -0.00533142 11.33888245 -0.00631714 C14.09198187 -0.00779258 16.84504887 -0.00564484 19.59814453 -0.00097656 C23.12673499 0.00471504 26.65524929 0.00144438 30.18383694 -0.00454903 C33.54777564 -0.0090329 36.9116939 -0.00589254 40.27563477 -0.00341797 C41.54442978 -0.0054422 42.81322479 -0.00746643 44.12046814 -0.009552 C45.29501053 -0.00639984 46.46955292 -0.00324768 47.6796875 0 C49.23283913 0.00119339 49.23283913 0.00119339 50.81736755 0.00241089 C53.40454102 0.12939453 53.40454102 0.12939453 56.40454102 1.12939453 C56.40454102 1.78939453 56.40454102 2.44939453 56.40454102 3.12939453 C35.28454102 3.12939453 14.16454102 3.12939453 -7.59545898 3.12939453 C-7.59545898 2.46939453 -7.59545898 1.80939453 -7.59545898 1.12939453 C-4.95023779 -0.19321607 -2.96213541 0.00227776 0 0 Z " fill="#F8F9ED" transform="translate(172.595458984375,535.87060546875)"/>
<path d="M0 0 C0.66 0 1.32 0 2 0 C1.67 12.21 1.34 24.42 1 37 C-3.7539482 32.2460518 -7.73793738 25.20548114 -8.1640625 18.3671875 C-7.875 16.1875 -7.875 16.1875 -7 13 C-6.67 13 -6.34 13 -6 13 C-5.87882813 13.56589844 -5.75765625 14.13179688 -5.6328125 14.71484375 C-5.46523438 15.44832031 -5.29765625 16.18179687 -5.125 16.9375 C-4.96257813 17.66839844 -4.80015625 18.39929688 -4.6328125 19.15234375 C-4.17038477 21.20700294 -4.17038477 21.20700294 -2 22 C-1.96241577 21.16021606 -1.96241577 21.16021606 -1.92407227 20.3034668 C-1.80796255 17.76458695 -1.6853042 15.22606447 -1.5625 12.6875 C-1.50352539 11.36588867 -1.50352539 11.36588867 -1.44335938 10.01757812 C-1.40146484 9.17001953 -1.35957031 8.32246094 -1.31640625 7.44921875 C-1.27974854 6.66893311 -1.24309082 5.88864746 -1.20532227 5.0847168 C-1 3 -1 3 0 0 Z " fill="#F4F5ED" transform="translate(573,347)"/>
<path d="M0 0 C3.87474457 -0.11668214 7.74903396 -0.18741231 11.625 -0.25 C13.26662109 -0.30027344 13.26662109 -0.30027344 14.94140625 -0.3515625 C21.25899979 -0.42813939 25.25623595 -0.37138667 30 4 C31.11445498 6.22890995 31.16480286 7.53055106 31.1875 10 C31.20167969 10.70125 31.21585938 11.4025 31.23046875 12.125 C31 14 31 14 29 16 C28.01 15.34 27.02 14.68 26 14 C25.01 14.495 25.01 14.495 24 15 C23 12 23 12 25 4 C18.73 3.67 12.46 3.34 6 3 C6 2.67 6 2.34 6 2 C3.03 1.505 3.03 1.505 0 1 C0 0.67 0 0.34 0 0 Z " fill="#5B685C" transform="translate(481,539)"/>
<path d="M0 0 C0.99 0.33 1.98 0.66 3 1 C5.14255793 0.61067144 5.14255793 0.61067144 7 0 C5.376737 4.869789 0.93378443 6.2941185 -3.375 8.75 C-4.2515625 9.26949219 -5.128125 9.78898437 -6.03125 10.32421875 C-6.87429687 10.81019531 -7.71734375 11.29617188 -8.5859375 11.796875 C-9.3598584 12.24385742 -10.1337793 12.69083984 -10.93115234 13.15136719 C-13 14 -13 14 -16 13 C-11.07317073 8.07317073 -11.07317073 8.07317073 -7.25 7.8125 C-6.13625 7.9053125 -6.13625 7.9053125 -5 8 C-5.33 6.68 -5.66 5.36 -6 4 C-4.68 3.67 -3.36 3.34 -2 3 C-2 2.34 -2 1.68 -2 1 C-1.34 0.67 -0.68 0.34 0 0 Z " fill="#EFF1E8" transform="translate(193,272)"/>
<path d="M0 0 C0 0.99 0 1.98 0 3 C-0.80219971 3.01981934 -1.60439941 3.03963867 -2.4309082 3.06005859 C-6.05844177 3.15519495 -9.68539045 3.2649208 -13.3125 3.375 C-15.20645508 3.42140625 -15.20645508 3.42140625 -17.13867188 3.46875 C-18.95141602 3.52675781 -18.95141602 3.52675781 -20.80078125 3.5859375 C-21.91622314 3.6173584 -23.03166504 3.6487793 -24.1809082 3.68115234 C-27.20368786 3.805249 -27.20368786 3.805249 -30 6 C-30.99 6 -31.98 6 -33 6 C-32 3 -32 3 -30.31298828 1.83837891 C-27.45871011 0.80380098 -25.02714146 0.6762773 -21.9921875 0.5859375 C-20.26548828 0.52792969 -20.26548828 0.52792969 -18.50390625 0.46875 C-17.30636719 0.4378125 -16.10882813 0.406875 -14.875 0.375 C-13.66972656 0.33632813 -12.46445313 0.29765625 -11.22265625 0.2578125 C-3.0186942 0 -3.0186942 0 0 0 Z " fill="#F6F7ED" transform="translate(144,536)"/>
<path d="M0 0 C0.33 0 0.66 0 1 0 C1.01981934 0.58491211 1.03963867 1.16982422 1.06005859 1.77246094 C1.15553481 4.43208025 1.26512142 7.09093838 1.375 9.75 C1.4059375 10.67039062 1.436875 11.59078125 1.46875 12.5390625 C1.50742187 13.42851562 1.54609375 14.31796875 1.5859375 15.234375 C1.6173584 16.05131836 1.6487793 16.86826172 1.68115234 17.70996094 C2.02343693 20.16832958 2.7739277 21.85759999 4 24 C4.66 24 5.32 24 6 24 C4.66654496 27.59007126 3.1056769 30.79570907 1 34 C0.67 34 0.34 34 0 34 C0 22.78 0 11.56 0 0 Z " fill="#DDE1D5" transform="translate(593,350)"/>
<path d="M0 0 C0 0.66 0 1.32 0 2 C-0.79664063 2.38091797 -0.79664063 2.38091797 -1.609375 2.76953125 C-5.3658089 4.59976456 -8.66656753 6.47118916 -12 9 C-13.64797236 9.71162443 -15.31165408 10.39031953 -17 11 C-17.33 13.64 -17.66 16.28 -18 19 C-18.33 19 -18.66 19 -19 19 C-19.95607346 15.36540327 -20.16134854 12.60366951 -19 9 C-13.88824412 4.36344055 -7.22758325 -0.85680719 0 0 Z " fill="#ECEFE4" transform="translate(184,309)"/>
<path d="M0 0 C0.66 0.33 1.32 0.66 2 1 C1.23821128 5.10113652 -0.64761408 8.70826722 -2.4375 12.4375 C-4.41525209 16.58466264 -6.3536628 20.7062864 -8 25 C-9.05513852 21.83458444 -8.98180557 21.12000482 -8.125 18.0625 C-7.94195312 17.39347656 -7.75890625 16.72445313 -7.5703125 16.03515625 C-7.38210937 15.36355469 -7.19390625 14.69195312 -7 14 C-6.83242187 13.29746094 -6.66484375 12.59492188 -6.4921875 11.87109375 C-6 10 -6 10 -5 8 C-4.34 8 -3.68 8 -3 8 C-2.690625 7.05125 -2.38125 6.1025 -2.0625 5.125 C-1 2 -1 2 0 0 Z " fill="#F1F0E6" transform="translate(240,378)"/>
<path d="M0 0 C2.8125 0.1875 2.8125 0.1875 5 1 C2.21022965 3.97100833 -0.58148913 6.19659143 -4.0625 8.3125 C-4.91972656 8.84488281 -5.77695312 9.37726563 -6.66015625 9.92578125 C-9 11 -9 11 -12 10 C-11 8 -11 8 -9 6 C-9.66 5.67 -10.32 5.34 -11 5 C-10.113125 5.103125 -9.22625 5.20625 -8.3125 5.3125 C-4.79079809 5.33538718 -4.79079809 5.33538718 -2.4375 2.4375 C-1.633125 1.633125 -0.82875 0.82875 0 0 Z " fill="#F1F0E6" transform="translate(652,363)"/>
<path d="M0 0 C0.66 0.33 1.32 0.66 2 1 C2.08131463 2.43655854 2.13933559 3.8744483 2.1875 5.3125 C2.22230469 6.11300781 2.25710938 6.91351563 2.29296875 7.73828125 C1.93021568 10.53873497 1.09500088 11.18906704 -1 13 C-1.99 14.485 -1.99 14.485 -3 16 C-3.66 15.67 -4.32 15.34 -5 15 C-4.88541307 13.56163249 -4.75790884 12.12429034 -4.625 10.6875 C-4.55539062 9.88699219 -4.48578125 9.08648437 -4.4140625 8.26171875 C-3.81200537 4.97312366 -1.83921475 2.75882212 0 0 Z " fill="#505F54" transform="translate(557,315)"/>
<path d="M0 0 C0.66 0.99 1.32 1.98 2 3 C-1.9589232 2.89049976 -5.91686326 2.75978332 -9.875 2.625 C-11.00292969 2.5940625 -12.13085938 2.563125 -13.29296875 2.53125 C-14.90751953 2.47324219 -14.90751953 2.47324219 -16.5546875 2.4140625 C-17.54968262 2.3826416 -18.54467773 2.3512207 -19.56982422 2.31884766 C-22 2 -22 2 -24 0 C-21.31288976 -0.19647038 -18.62571669 -0.38239615 -15.9375 -0.5625 C-15.18533203 -0.61857422 -14.43316406 -0.67464844 -13.65820312 -0.73242188 C-8.97304229 -1.0366531 -4.6139982 -1.07561996 0 0 Z " fill="#F8FAEE" transform="translate(329,339)"/>
<path d="M0 0 C0.33 0.99 0.66 1.98 1 3 C-1.26645058 4.34130761 -3.53760097 5.67316234 -5.8125 7 C-6.77639648 7.57234375 -6.77639648 7.57234375 -7.75976562 8.15625 C-12.66015625 11 -12.66015625 11 -16 11 C-16 10.34 -16 9.68 -16 9 C-11.61538462 6 -11.61538462 6 -9 6 C-9 5.34 -9 4.68 -9 4 C-6.03 2.68 -3.06 1.36 0 0 Z " fill="#EEF0E4" transform="translate(300,212)"/>
<path d="M0 0 C0 0.66 0 1.32 0 2 C-0.66 2.66 -1.32 3.32 -2 4 C-2 4.66 -2 5.32 -2 6 C-2.99 6.33 -3.98 6.66 -5 7 C-5 6.34 -5 5.68 -5 5 C-8.78034623 8.47736026 -8.78034623 8.47736026 -11 13 C-11.66 12.67 -12.32 12.34 -13 12 C-12.39281709 8.943846 -11.43597932 6.84238324 -9.625 4.3125 C-9.20476563 3.71050781 -8.78453125 3.10851562 -8.3515625 2.48828125 C-5.87116173 -0.24302712 -3.58361281 0 0 0 Z " fill="#EFF0E5" transform="translate(616,473)"/>
<path d="M0 0 C0.33 0.99 0.66 1.98 1 3 C6.94 3.33 12.88 3.66 19 4 C19 4.33 19 4.66 19 5 C14.54234428 5.22506224 10.08394312 5.4272243 5.625 5.625 C4.35398437 5.68945312 3.08296875 5.75390625 1.7734375 5.8203125 C0.56171875 5.871875 -0.65 5.9234375 -1.8984375 5.9765625 C-3.01911621 6.02893066 -4.13979492 6.08129883 -5.29443359 6.13525391 C-8 6 -8 6 -10 4 C-8.68 4 -7.36 4 -6 4 C-6 3.34 -6 2.68 -6 2 C-4.02 2 -2.04 2 0 2 C0 1.34 0 0.68 0 0 Z " fill="#D8DDD1" transform="translate(304,337)"/>
<path d="M0 0 C0.33 0 0.66 0 1 0 C1.33 1.98 1.66 3.96 2 6 C2.66 5.34 3.32 4.68 4 4 C4 5.32 4 6.64 4 8 C3.34 8 2.68 8 2 8 C2 12.62 2 17.24 2 22 C1.01 21.67 0.02 21.34 -1 21 C-0.67 14.07 -0.34 7.14 0 0 Z " fill="#E0E3D9" transform="translate(559,312)"/>
<path d="M0 0 C0.99 0.33 1.98 0.66 3 1 C2.75499132 4.59346057 2.363706 6.55416683 0.0625 9.375 C-4.28781809 11.68333205 -8.1734679 11.33738865 -13 11 C-13 10.67 -13 10.34 -13 10 C-12.39671875 10.03222656 -11.7934375 10.06445312 -11.171875 10.09765625 C-8.5229713 10.05920442 -6.49995369 9.90359772 -4 9 C-1.99047395 6.20459632 -0.95103922 3.29205884 0 0 Z " fill="#485346" transform="translate(645,583)"/>
<path d="M0 0 C5.29540989 0.33096312 9.24413757 3.47229743 13 7 C13.33 7.99 13.66 8.98 14 10 C13.34 10 12.68 10 12 10 C11.67 10.66 11.34 11.32 11 12 C10.67 10.02 10.34 8.04 10 6 C7.36 5.67 4.72 5.34 2 5 C1.34 3.35 0.68 1.7 0 0 Z " fill="#EDF0E6" transform="translate(342,369)"/>
<path d="M0 0 C1.8125 0.5625 1.8125 0.5625 4 2 C5.01965427 4.32481174 6.02059602 6.65794699 7 9 C7.99 9.33 8.98 9.66 10 10 C9 13 9 13 8 15 C7.34 15 6.68 15 6 15 C4.99539469 12.87717331 3.99644398 10.75166979 3 8.625 C2.443125 7.44164062 1.88625 6.25828125 1.3125 5.0390625 C0 2 0 2 0 0 Z " fill="#F2F3E7" transform="translate(387,383)"/>
<path d="M0 0 C0.66 0.33 1.32 0.66 2 1 C2.02505615 1.59014893 2.0501123 2.18029785 2.07592773 2.78833008 C2.19200052 5.46326814 2.31467572 8.1378638 2.4375 10.8125 C2.47681641 11.74126953 2.51613281 12.67003906 2.55664062 13.62695312 C2.59853516 14.51962891 2.64042969 15.41230469 2.68359375 16.33203125 C2.72025146 17.15421143 2.75690918 17.9763916 2.79467773 18.82348633 C2.93427772 21.17905178 2.93427772 21.17905178 4 24 C4.66 24 5.32 24 6 24 C6 24.99 6 25.98 6 27 C5.34 27 4.68 27 4 27 C3.67 26.34 3.34 25.68 3 25 C2.34 26.32 1.68 27.64 1 29 C0.8323954 24.72920293 0.66607641 20.45835675 0.5 16.1875 C0.45230469 14.97255859 0.40460937 13.75761719 0.35546875 12.50585938 C0.31035156 11.34248047 0.26523437 10.17910156 0.21875 8.98046875 C0.17685547 7.90692139 0.13496094 6.83337402 0.09179688 5.72729492 C0.02756746 3.81903204 0 1.90934351 0 0 Z " fill="#F6F7EB" transform="translate(593,347)"/>
<path d="M0 0 C0.12375 0.639375 0.2475 1.27875 0.375 1.9375 C0.58125 2.618125 0.7875 3.29875 1 4 C1.66 4.33 2.32 4.66 3 5 C1.03315828 5.73339861 -0.93388874 6.46625509 -2.90234375 7.1953125 C-4.5409532 7.82390383 -6.15226975 8.52375898 -7.75 9.25 C-10.29531998 10.09843999 -11.51678568 9.91970901 -14 9 C-11.34771188 7.92474806 -8.71631546 6.90543849 -6 6 C-5.34 5.01 -4.68 4.02 -4 3 C-3.01 2.67 -2.02 2.34 -1 2 C-0.67 1.34 -0.34 0.68 0 0 Z " fill="#EFF0E5" transform="translate(290,339)"/>
<path d="M0 0 C0.66 0.66 1.32 1.32 2 2 C0.23174858 3.14981374 -1.53969521 4.29471922 -3.3125 5.4375 C-4.29863281 6.07558594 -5.28476563 6.71367187 -6.30078125 7.37109375 C-9 9 -9 9 -12 10 C-11.8125 7.640625 -11.8125 7.640625 -11 5 C-8.75 3.671875 -8.75 3.671875 -6 2.75 C-2.73650291 1.8165647 -2.73650291 1.8165647 0 0 Z " fill="#EEF1E6" transform="translate(257,237)"/>
<path d="M0 0 C0.33 0.66 0.66 1.32 1 2 C1.66 2 2.32 2 3 2 C3.3690205 16.78132118 3.3690205 16.78132118 1 23 C0.67 23 0.34 23 0 23 C0 15.41 0 7.82 0 0 Z " fill="#F7F8EE" transform="translate(690,361)"/>
<path d="M0 0 C2.60018816 3.90028225 2.15085514 7.47434569 2 12 C0.35 12 -1.3 12 -3 12 C-2.49202991 7.6822542 -1.80317221 3.96697886 0 0 Z " fill="#586257" transform="translate(235,393)"/>
<path d="M0 0 C0 0.33 0 0.66 0 1 C-16.8929385 2.33257403 -16.8929385 2.33257403 -24 1 C-24 0.67 -24 0.34 -24 0 C-15.96992764 -1.50563857 -8.08567124 -0.63782601 0 0 Z " fill="#F8F0E3" transform="translate(624,1)"/>
<path d="M0 0 C0.33 0 0.66 0 1 0 C1.31563182 5.26053037 0.66590937 8.44573816 -2 13 C-2.99 12.67 -3.98 12.34 -5 12 C-5.1875 8.625 -5.1875 8.625 -5 5 C-4.01 4.34 -3.02 3.68 -2 3 C-2 3.66 -2 4.32 -2 5 C-1.34 5 -0.68 5 0 5 C0 3.35 0 1.7 0 0 Z " fill="#F1F1E6" transform="translate(549,269)"/>
<path d="M0 0 C7.59 0.33 15.18 0.66 23 1 C23 1.33 23 1.66 23 2 C15.08 2.33 7.16 2.66 -1 3 C-0.67 2.01 -0.34 1.02 0 0 Z " fill="#F8F0E3" transform="translate(161,0)"/>
<path d="M0 0 C3 1 3 1 5 4 C5.66 4.33 6.32 4.66 7 5 C7.59355614 7.64860427 7.74209269 10.29197322 8 13 C1.84665227 7.01295896 1.84665227 7.01295896 0 4 C0 2.68 0 1.36 0 0 Z " fill="#F1F2E6" transform="translate(600,240)"/>
<path d="M0 0 C1.90608098 3.21182149 2.22266247 5.53882603 2.125 9.25 C2.10695313 10.14203125 2.08890625 11.0340625 2.0703125 11.953125 C2.03550781 12.96632813 2.03550781 12.96632813 2 14 C1.01 14.33 0.02 14.66 -1 15 C-1.66 15.66 -2.32 16.32 -3 17 C-2.86722656 16.35933594 -2.73445312 15.71867187 -2.59765625 15.05859375 C-1.57506994 10.05016007 -0.66115853 5.06888206 0 0 Z " fill="#555F56" transform="translate(670,383)"/>
<path d="M0 0 C-1.53808977 3.07617954 -4.12096091 4.23732301 -7 6 C-7.66 6 -8.32 6 -9 6 C-9 6.66 -9 7.32 -9 8 C-9.66 8 -10.32 8 -11 8 C-11.33 6.68 -11.66 5.36 -12 4 C-10.56988027 3.13353333 -9.13059381 2.28218171 -7.6875 1.4375 C-6.48673828 0.72400391 -6.48673828 0.72400391 -5.26171875 -0.00390625 C-3 -1 -3 -1 0 0 Z " fill="#545F52" transform="translate(292,222)"/>
<path d="M0 0 C5.62541841 0.45003347 8.61487125 1.68441485 13 5 C12.67 5.66 12.34 6.32 12 7 C10.37061226 6.40776866 8.74658872 5.80076372 7.125 5.1875 C5.76761719 4.68283203 5.76761719 4.68283203 4.3828125 4.16796875 C2 3 2 3 0 0 Z " fill="#EFF0E7" transform="translate(313,234)"/>
<path d="M0 0 C3.59391114 1.33488128 6.75490696 2.96022723 10 5 C7.47064411 6.26467795 6.65809097 5.7249339 4 5 C3.01 5 2.02 5 1 5 C0.34 4.67 -0.32 4.34 -1 4 C-1 4.66 -1 5.32 -1 6 C-1.66 6 -2.32 6 -3 6 C-2.67 5.01 -2.34 4.02 -2 3 C-1.34 3 -0.68 3 0 3 C0 2.01 0 1.02 0 0 Z " fill="#455447" transform="translate(356,234)"/>
<path d="M0 0 C2 4 4 8 6 12 C3 12 3 12 1.375 10.6875 C-0.36517102 8.55183556 -1 6.75958004 -1 4 C-1.66 3.67 -2.32 3.34 -3 3 C-2.01 2.01 -1.02 1.02 0 0 Z " fill="#F5F4EA" transform="translate(108,546)"/>
<path d="M0 0 C0.99 0.99 1.98 1.98 3 3 C3.66 3 4.32 3 5 3 C4.34 5.97 3.68 8.94 3 12 C2.01 11.67 1.02 11.34 0 11 C0 7.37 0 3.74 0 0 Z " fill="#E5E5DA" transform="translate(601,350)"/>
<path d="M0 0 C0.33 0 0.66 0 1 0 C1.05383848 2.45862401 1.09359038 4.9160755 1.125 7.375 C1.14175781 8.07367188 1.15851562 8.77234375 1.17578125 9.4921875 C1.19344267 11.32897486 1.10303261 13.16601963 1 15 C0.34 15.66 -0.32 16.32 -1 17 C-3.00043102 11.66551729 -1.18117516 5.39965787 0 0 Z " fill="#F2F0E8" transform="translate(607,331)"/>
<path d="M0 0 C4.95 0.33 9.9 0.66 15 1 C15 1.33 15 1.66 15 2 C7.08 2.495 7.08 2.495 -1 3 C-0.67 2.01 -0.34 1.02 0 0 Z " fill="#F7EFE2" transform="translate(305,0)"/>
<path d="M0 0 C1.60379341 -0.05416188 3.20811406 -0.09286638 4.8125 -0.125 C5.70582031 -0.14820313 6.59914063 -0.17140625 7.51953125 -0.1953125 C10 0 10 0 13 2 C11.33315985 3.66684015 9.34356931 3.21072764 7.0625 3.25 C6.16660156 3.27578125 5.27070313 3.3015625 4.34765625 3.328125 C3.57292969 3.21984375 2.79820312 3.1115625 2 3 C1.34 2.01 0.68 1.02 0 0 Z " fill="#F5F5EA" transform="translate(316,362)"/>
<path d="M0 0 C0.33 0.99 0.66 1.98 1 3 C-4.625 7 -4.625 7 -8 7 C-7.34 5.02 -6.68 3.04 -6 1 C-5.01 1.33 -4.02 1.66 -3 2 C-2.01 1.34 -1.02 0.68 0 0 Z " fill="#F1F2E8" transform="translate(280,223)"/>
<path d="M0 0 C1.32830615 3.98491845 0.23204404 5.40048548 -1.4375 9.1875 C-1.91058594 10.27417969 -2.38367188 11.36085938 -2.87109375 12.48046875 C-3.42990234 13.72763672 -3.42990234 13.72763672 -4 15 C-5.0390625 13.11328125 -5.0390625 13.11328125 -6 11 C-5.375 9.1875 -5.375 9.1875 -4 7 C-3.28833641 5.75189302 -2.58021727 4.50176065 -1.875 3.25 C-0.946875 1.64125 -0.946875 1.64125 0 0 Z " fill="#445345" transform="translate(623,424)"/>
<path d="M0 0 C3.78786597 0.5260925 6.17152224 1.38103911 9 4 C9 4.66 9 5.32 9 6 C7.02 6 5.04 6 3 6 C3 5.01 3 4.02 3 3 C2.34 3 1.68 3 1 3 C0.67 2.01 0.34 1.02 0 0 Z " fill="#F2F2E8" transform="translate(339,248)"/>
<path d="M0 0 C0.33 0 0.66 0 1 0 C1 1.65 1 3.3 1 5 C1.66 5 2.32 5 3 5 C2.67 7.64 2.34 10.28 2 13 C1.01 12.67 0.02 12.34 -1 12 C-0.67 8.04 -0.34 4.08 0 0 Z " fill="#DDDECF" transform="translate(689,379)"/>
<path d="M0 0 C5.00918744 1.47329042 7.51807722 4.27515238 11 8 C10.34 9.32 9.68 10.64 9 12 C8.773125 11.443125 8.54625 10.88625 8.3125 10.3125 C6.6407496 7.36703501 4.41718785 5.35675815 2 3 C1.34 2.01 0.68 1.02 0 0 Z " fill="#455348" transform="translate(363,359)"/>
<path d="M0 0 C0.66 0.33 1.32 0.66 2 1 C2 1.99 2 2.98 2 4 C4.31 4 6.62 4 9 4 C8.67 5.65 8.34 7.3 8 9 C5.03 7.35 2.06 5.7 -1 4 C-0.67 2.68 -0.34 1.36 0 0 Z " fill="#E9ECE3" transform="translate(422,268)"/>
<path d="M0 0 C-1.35513665 4.06540996 -3.30796918 4.97300269 -7 7 C-9.19921875 6.609375 -9.19921875 6.609375 -11 6 C-9.54550599 4.9944239 -8.08627557 3.99569565 -6.625 3 C-5.40683594 2.1646875 -5.40683594 2.1646875 -4.1640625 1.3125 C-2 0 -2 0 0 0 Z " fill="#F1F3EA" transform="translate(242,247)"/>
<path d="M0 0 C1.32 0.66 2.64 1.32 4 2 C3.67 3.98 3.34 5.96 3 8 C1.5 6.625 1.5 6.625 0 5 C0 4.34 0 3.68 0 3 C-0.99 4.32 -1.98 5.64 -3 7 C-3.66 6.67 -4.32 6.34 -5 6 C-3.35 4.02 -1.7 2.04 0 0 Z " fill="#425045" transform="translate(582,228)"/>
<path d="M0 0 C8.86173965 -0.46459606 8.86173965 -0.46459606 13.0625 1.25 C15.18436938 3.16652718 15.70926678 4.18957887 16 7 C12.535 5.02 12.535 5.02 9 3 C9 2.34 9 1.68 9 1 C6.03 1 3.06 1 0 1 C0 0.67 0 0.34 0 0 Z " fill="#F2F4E6" transform="translate(496,537)"/>
<path d="M0 0 C1.485 0.99 1.485 0.99 3 2 C3 2.99 3 3.98 3 5 C3.66 5.33 4.32 5.66 5 6 C3.02 6.66 1.04 7.32 -1 8 C-1.125 2.25 -1.125 2.25 0 0 Z " fill="#E0E7DE" transform="translate(618,444)"/>
<path d="M0 0 C4.7517398 0.43197635 6.92000054 1.32769295 10 5 C8 6 8 6 4.9375 5.1875 C1.46782899 3.78486704 1.57354101 3.14708201 0 0 Z " fill="#F1F3E9" transform="translate(424,299)"/>
<path d="M0 0 C2.475 0.99 2.475 0.99 5 2 C4.42415568 4.38564077 3.77772405 6.66682784 3 9 C1.68 8.34 0.36 7.68 -1 7 C-0.01 5.68 0.98 4.36 2 3 C1.34 2.01 0.68 1.02 0 0 Z " fill="#F3F0E4" transform="translate(417,294)"/>
<path d="M0 0 C6.70212766 1.93617021 6.70212766 1.93617021 9 5 C9 5.66 9 6.32 9 7 C8.34 7 7.68 7 7 7 C7 6.34 7 5.68 7 5 C2.545 4.01 2.545 4.01 -2 3 C-1.34 2.67 -0.68 2.34 0 2 C0 1.34 0 0.68 0 0 Z " fill="#F1F0E9" transform="translate(399,283)"/>
<path d="M0 0 C3.66881155 0.70554068 6.70450534 2.27735506 10 4 C10 4.66 10 5.32 10 6 C6.38238619 5.67112602 4.44334967 5.37334709 1.625 3 C0 1 0 1 0 0 Z " fill="#EEF0E7" transform="translate(398,256)"/>
<path d="M0 0 C2.16874252 0.50603992 3.99967627 0.99983813 6 2 C6.33 1.34 6.66 0.68 7 0 C7.33 0.99 7.66 1.98 8 3 C8.66 3.66 9.32 4.32 10 5 C8.3125 5.6875 8.3125 5.6875 6 6 C3.3125 4.75 3.3125 4.75 1 3 C0.67 2.01 0.34 1.02 0 0 Z " fill="#F2F4E8" transform="translate(371,240)"/>
<path d="M0 0 C0.33 0.66 0.66 1.32 1 2 C1.99 2.33 2.98 2.66 4 3 C4.66 3.66 5.32 4.32 6 5 C4.54207116 5.05399736 3.08357288 5.09279177 1.625 5.125 C0.81289063 5.14820313 0.00078125 5.17140625 -0.8359375 5.1953125 C-3 5 -3 5 -5 3 C-3.35 2.01 -1.7 1.02 0 0 Z " fill="#516056" transform="translate(309,209)"/>
<path d="M0 0 C1.20628008 2.33214148 2.1654738 4.49642139 3 7 C2.01 7.33 1.02 7.66 0 8 C-0.99 7.34 -1.98 6.68 -3 6 C-3 4.68 -3 3.36 -3 2 C-2.01 2 -1.02 2 0 2 C0 1.34 0 0.68 0 0 Z " fill="#E6E5D7" transform="translate(180,584)"/>
<path d="M0 0 C0 0.66 0 1.32 0 2 C-1.89353366 3.89353366 -3.84526801 5.4198632 -6 7 C-8 3.25 -8 3.25 -8 1 C-5.29120665 -0.35439668 -2.99066732 -0.06501451 0 0 Z " fill="#516055" transform="translate(629,449)"/>
<path d="M0 0 C0.66 0.33 1.32 0.66 2 1 C1.60348083 2.31872662 1.18201309 3.62997101 0.75 4.9375 C0.40195312 6.03384766 0.40195312 6.03384766 0.046875 7.15234375 C-1 9 -1 9 -3.109375 9.75390625 C-4.04523437 9.87572266 -4.04523437 9.87572266 -5 10 C-5 9.34 -5 8.68 -5 8 C-4.34 8 -3.68 8 -3 8 C-3.2475 7.4225 -3.495 6.845 -3.75 6.25 C-3.8325 5.5075 -3.915 4.765 -4 4 C-2.0625 1.75 -2.0625 1.75 0 0 Z " fill="#F4F3E7" transform="translate(661,406)"/>
<path d="M0 0 C0.66 0.33 1.32 0.66 2 1 C-0.07143201 5.03384128 -1.96615872 6.92856799 -6 9 C-6 6 -6 6 -3.5625 3.375 C-2.716875 2.59125 -1.87125 1.8075 -1 1 C-0.67 0.67 -0.34 0.34 0 0 Z " fill="#F1F2EB" transform="translate(270,378)"/>
<path d="M0 0 C0.515625 0.2475 1.03125 0.495 1.5625 0.75 C-0.1875 2.8125 -0.1875 2.8125 -2.4375 4.75 C-4.6875 4.5 -4.6875 4.5 -6.4375 3.75 C-6.4375 4.41 -6.4375 5.07 -6.4375 5.75 C-7.4275 5.75 -8.4175 5.75 -9.4375 5.75 C-9.4375 5.09 -9.4375 4.43 -9.4375 3.75 C-3.0375 -0.31153846 -3.0375 -0.31153846 0 0 Z " fill="#F0F2E6" transform="translate(204.4375,296.25)"/>
<path d="M0 0 C0.33 0.66 0.66 1.32 1 2 C-1.36292656 4.52588702 -2.66462511 5.88820837 -6 7 C-6.99 7.495 -6.99 7.495 -8 8 C-7.9375 5.6875 -7.9375 5.6875 -7 3 C-3.4375 1.1875 -3.4375 1.1875 0 0 Z " fill="#F3F2E6" transform="translate(290,245)"/>
<path d="M0 0 C3.62613199 0.56959153 5.25517741 1.92374534 7.75 4.5625 C8.36359375 5.20316406 8.9771875 5.84382812 9.609375 6.50390625 C10.06828125 6.99761719 10.5271875 7.49132812 11 8 C10.34 8.66 9.68 9.32 9 10 C8.401875 9.21625 7.80375 8.4325 7.1875 7.625 C5.08914751 4.85425677 5.08914751 4.85425677 2 3 C1.34 2.01 0.68 1.02 0 0 Z " fill="#5B6559" transform="translate(583,227)"/>
<path d="M0 0 C0 0.99 0 1.98 0 3 C-0.825 2.855625 -1.65 2.71125 -2.5 2.5625 C-6.32686278 1.94746848 -10.15216707 1.46439363 -14 1 C-14 0.67 -14 0.34 -14 0 C-8.97874074 -0.77916092 -5.02296004 -1.13016601 0 0 Z " fill="#F5F5E7" transform="translate(646,595)"/>
<path d="M0 0 C1.98 0 3.96 0 6 0 C6 0.66 6 1.32 6 2 C4.35 2.33 2.7 2.66 1 3 C1.33 4.65 1.66 6.3 2 8 C1.01 8 0.02 8 -1 8 C-0.67 5.36 -0.34 2.72 0 0 Z " fill="#515F53" transform="translate(601,434)"/>
<path d="M0 0 C6.0546875 0.390625 6.0546875 0.390625 8 1 C9.2578125 3.046875 9.2578125 3.046875 10 5 C8.51793505 4.745504 7.03931385 4.47088238 5.5625 4.1875 C4.73878906 4.03667969 3.91507812 3.88585937 3.06640625 3.73046875 C2.38449219 3.48941406 1.70257813 3.24835938 1 3 C0.67 2.01 0.34 1.02 0 0 Z " fill="#F0F4E6" transform="translate(329,364)"/>
<path d="M0 0 C0.66 0.33 1.32 0.66 2 1 C0.35 2.98 -1.3 4.96 -3 7 C-5.475 6.01 -5.475 6.01 -8 5 C-5.45378681 2.99940392 -3.01962385 1.20784954 0 0 Z " fill="#545F53" transform="translate(282,347)"/>
<path d="M0 0 C2 4 2 4 2 6 C1.34 6 0.68 6 0 6 C0 6.66 0 7.32 0 8 C-1.65 8.66 -3.3 9.32 -5 10 C-3.35 6.7 -1.7 3.4 0 0 Z " fill="#E3E6DC" transform="translate(578,263)"/>
<path d="M0 0 C0.99 0.33 1.98 0.66 3 1 C1.40377344 2.03320481 -0.20229106 3.05122429 -1.8125 4.0625 C-3.15248047 4.91521484 -3.15248047 4.91521484 -4.51953125 5.78515625 C-7 7 -7 7 -10 6 C-9.34 6 -8.68 6 -8 6 C-7.67 5.34 -7.34 4.68 -7 4 C-4.71598892 2.53589034 -2.42607444 1.21303722 0 0 Z " fill="#475245" transform="translate(281,247)"/>
<path d="M0 0 C0.99 0.33 1.98 0.66 3 1 C2.25 4.375 2.25 4.375 1 8 C-0.98 8.99 -0.98 8.99 -3 10 C-2.01 6.7 -1.02 3.4 0 0 Z " fill="#5A645A" transform="translate(605,422)"/>
<path d="M0 0 C-0.33 2.97 -0.66 5.94 -1 9 C-1.66 9 -2.32 9 -3 9 C-3.33 6.36 -3.66 3.72 -4 1 C-1 0 -1 0 0 0 Z " fill="#F2F4E8" transform="translate(231,404)"/>
<path d="M0 0 C2.625 -0.1875 2.625 -0.1875 5 0 C4.67 0.99 4.34 1.98 4 3 C3.34 3 2.68 3 2 3 C0.29319053 4.62553283 -1.37660195 6.29115995 -3 8 C-2.45276317 4.62537285 -1.9451 2.91765 0 0 Z " fill="#535D54" transform="translate(242,380)"/>
<path d="M0 0 C2.27618181 2.1677922 4.32954824 4.32727719 6 7 C5.67 7.99 5.34 8.98 5 10 C1.91910327 7.22719294 0.31224548 4.93673644 -1 1 C-0.67 0.67 -0.34 0.34 0 0 Z " fill="#EFF1E5" transform="translate(379,369)"/>
<path d="M0 0 C2.4375 0.625 2.4375 0.625 5 2 C5.8125 5.125 5.8125 5.125 6 8 C3.5625 7.375 3.5625 7.375 1 6 C0.1875 2.875 0.1875 2.875 0 0 Z " fill="#F2F3E6" transform="translate(375,269)"/>
<path d="M0 0 C-0.804375 0.28875 -1.60875 0.5775 -2.4375 0.875 C-5.1326468 1.73262568 -5.1326468 1.73262568 -6 4 C-9.0625 4.625 -9.0625 4.625 -12 5 C-12 4.34 -12 3.68 -12 3 C-7.84850771 0.11701924 -4.90549313 -1.63516438 0 0 Z " fill="#F1F2E6" transform="translate(278,255)"/>
<path d="M0 0 C0.66 0 1.32 0 2 0 C0.61811547 3.21043882 -0.92421903 5.04936365 -3.625 7.25 C-4.57246094 8.03117187 -4.57246094 8.03117187 -5.5390625 8.828125 C-6.02117188 9.21484375 -6.50328125 9.6015625 -7 10 C-6.34 8.35 -5.68 6.7 -5 5 C-4.34 5 -3.68 5 -3 5 C-2.690625 4.360625 -2.38125 3.72125 -2.0625 3.0625 C-1 1 -1 1 0 0 Z " fill="#F5F7ED" transform="translate(648,427)"/>
<path d="M0 0 C1.23593891 3.70781672 0.5678132 4.67510253 -0.9375 8.1875 C-1.31777344 9.08855469 -1.69804687 9.98960937 -2.08984375 10.91796875 C-2.54037109 11.94857422 -2.54037109 11.94857422 -3 13 C-4.0494188 9.85174359 -3.98655124 9.01298497 -3.1875 5.9375 C-3.01605469 5.24527344 -2.84460938 4.55304688 -2.66796875 3.83984375 C-2 2 -2 2 0 0 Z " fill="#F6F8ED" transform="translate(235,390)"/>
<path d="M0 0 C0.33 0.99 0.66 1.98 1 3 C-0.97746603 3.73080266 -2.98072489 4.39421747 -5 5 C-5.66 4.67 -6.32 4.34 -7 4 C-3.375 0 -3.375 0 0 0 Z " fill="#F0F1E9" transform="translate(660,386)"/>
<path d="M0 0 C0 2.96200864 -0.06343771 5.19031313 -1 8 C-3.5625 9.3125 -3.5625 9.3125 -6 10 C-5.34 9.01 -4.68 8.02 -4 7 C-4 6.01 -4 5.02 -4 4 C-2 1.8125 -2 1.8125 0 0 Z " fill="#556458" transform="translate(633,381)"/>
<path d="M0 0 C1.65 0 3.3 0 5 0 C5 0.66 5 1.32 5 2 C3.25 3.5078125 3.25 3.5078125 1 5.125 C0.2575 5.66382813 -0.485 6.20265625 -1.25 6.7578125 C-1.8275 7.16773438 -2.405 7.57765625 -3 8 C-2.690625 7.236875 -2.38125 6.47375 -2.0625 5.6875 C-1.32106407 3.81210323 -0.63771783 1.91315348 0 0 Z " fill="#F0F3E8" transform="translate(631,378)"/>
<path d="M0 0 C1.5625 1.0625 1.5625 1.0625 3 3 C2.6875 6.6875 2.6875 6.6875 2 10 C1.34 9.67 0.68 9.34 0 9 C-0.44921875 7.1875 -0.44921875 7.1875 -0.6875 5 C-0.77386719 4.278125 -0.86023438 3.55625 -0.94921875 2.8125 C-0.96597656 2.214375 -0.98273437 1.61625 -1 1 C-0.67 0.67 -0.34 0.34 0 0 Z " fill="#F6F7EB" transform="translate(563,351)"/>
<path d="M0 0 C0.33 0.99 0.66 1.98 1 3 C-3.02992782 2.44687265 -7.02022924 1.8441938 -11 1 C-6.8204355 -1.78637633 -4.85331323 -0.79562512 0 0 Z " fill="#EEF2E8" transform="translate(339,342)"/>
<path d="M0 0 C0.66 1.98 1.32 3.96 2 6 C0.35 5.67 -1.3 5.34 -3 5 C-3 4.34 -3 3.68 -3 3 C-3.66 3 -4.32 3 -5 3 C-5 2.34 -5 1.68 -5 1 C-3 0 -3 0 0 0 Z " fill="#516055" transform="translate(615,266)"/>
<path d="M0 0 C2.4375 0.8125 2.4375 0.8125 5 2 C5.33 2.99 5.66 3.98 6 5 C4.1875 5.6875 4.1875 5.6875 2 6 C0.25 4.5625 0.25 4.5625 -1 3 C-0.34 3 0.32 3 1 3 C0.67 2.01 0.34 1.02 0 0 Z " fill="#F2F3E6" transform="translate(355,257)"/>
<path d="M0 0 C0.99 0.33 1.98 0.66 3 1 C0.16569547 4.2542015 -1.68607774 5.5206753 -6 6 C-5.34 5.67 -4.68 5.34 -4 5 C-3.67 4.34 -3.34 3.68 -3 3 C-2 1 -2 1 0 0 Z " fill="#EFF2E7" transform="translate(642,459)"/>
<path d="M0 0 C0.99 0.33 1.98 0.66 3 1 C1.1875 3.5 1.1875 3.5 -1 6 C-1.99 6 -2.98 6 -4 6 C-4.33 6.66 -4.66 7.32 -5 8 C-5 5 -5 5 -2.5 2.3125 C-1.675 1.549375 -0.85 0.78625 0 0 Z " fill="#F6F6E9" transform="translate(659,445)"/>
<path d="M0 0 C-1.36983503 3.16115776 -1.9890638 3.9927092 -5 6 C-5.99 5.67 -6.98 5.34 -8 5 C-3.375 0 -3.375 0 0 0 Z " fill="#F3F4EA" transform="translate(638,438)"/>
<path d="M0 0 C1.54571278 2.31856917 2.79618552 4.50638429 4 7 C3.34 7 2.68 7 2 7 C2 9.64 2 12.28 2 15 C1.67 15 1.34 15 1 15 C0.67 10.05 0.34 5.1 0 0 Z " fill="#E0E5DB" transform="translate(249,417)"/>
<path d="M0 0 C0.99 0 1.98 0 3 0 C3.66 0.66 4.32 1.32 5 2 C1.535 4.97 1.535 4.97 -2 8 C-1.33333333 5.33333333 -0.66666667 2.66666667 0 0 Z " fill="#425146" transform="translate(642,392)"/>
<path d="M0 0 C0.625 1.8125 0.625 1.8125 1 4 C0.01 5.485 0.01 5.485 -1 7 C-1 6.34 -1 5.68 -1 5 C-2.32 5 -3.64 5 -5 5 C-4 2 -4 2 -1.9375 0.8125 C-1.298125 0.544375 -0.65875 0.27625 0 0 Z " fill="#ECEFE8" transform="translate(670,379)"/>
<path d="M0 0 C0.33 0.99 0.66 1.98 1 3 C1.99 3.33 2.98 3.66 4 4 C3.34 6.97 2.68 9.94 2 13 C1.67 13 1.34 13 1 13 C0.67 8.71 0.34 4.42 0 0 Z " fill="#535E54" transform="translate(540,341)"/>
<path d="M0 0 C3.317124 4.422832 3.30466674 5.71910976 3 11 C2.01 11.33 1.02 11.66 0 12 C0 8.04 0 4.08 0 0 Z " fill="#516055" transform="translate(556,329)"/>
<path d="M0 0 C-2.52788007 2.79872437 -4.20411134 4.45773019 -8 5 C-8 4.01 -8 3.02 -8 2 C-4.77208445 -0.1519437 -3.71599191 -0.20086443 0 0 Z " fill="#F2F2E8" transform="translate(215,291)"/>
<path d="M0 0 C1.9375 0.8125 1.9375 0.8125 3.9375 2.8125 C2.6175 2.8125 1.2975 2.8125 -0.0625 2.8125 C-0.0625 3.4725 -0.0625 4.1325 -0.0625 4.8125 C-2.5375 3.8225 -2.5375 3.8225 -5.0625 2.8125 C-2.62182203 -0.23834746 -2.62182203 -0.23834746 0 0 Z " fill="#DCE1D9" transform="translate(313.0625,231.1875)"/>
<path d="M0 0 C0.99 0 1.98 0 3 0 C1.55746343 3.36591866 -0.33264727 5.51047079 -3 8 C-3.99 7.67 -4.98 7.34 -6 7 C-5.34 7 -4.68 7 -4 7 C-3.67 6.01 -3.34 5.02 -3 4 C-2.34 3.67 -1.68 3.34 -1 3 C-0.67 2.01 -0.34 1.02 0 0 Z " fill="#465446" transform="translate(601,480)"/>
<path d="M0 0 C1.9375 0.375 1.9375 0.375 4 1 C4.33 1.66 4.66 2.32 5 3 C4.34 3 3.68 3 3 3 C2.67 3.99 2.34 4.98 2 6 C0.68 5.01 -0.64 4.02 -2 3 C-1.34 2.01 -0.68 1.02 0 0 Z " fill="#516256" transform="translate(657,418)"/>
<path d="M0 0 C-1.37154504 2.95409701 -2.98863724 5.44008376 -5 8 C-5.66 7.67 -6.32 7.34 -7 7 C-4.60526316 0 -4.60526316 0 0 0 Z " fill="#F5F4E8" transform="translate(624,390)"/>
<path d="M0 0 C0.33 0 0.66 0 1 0 C1.25 6.625 1.25 6.625 -1 10 C-1.33 9.67 -1.66 9.34 -2 9 C-1.9140625 7.1875 -1.9140625 7.1875 -1.625 5 C-1.53476562 4.278125 -1.44453125 3.55625 -1.3515625 2.8125 C-1 1 -1 1 0 0 Z " fill="#F3F5E8" transform="translate(689,390)"/>
<path d="M0 0 C0 1.65 0 3.3 0 5 C0.66 5.33 1.32 5.66 2 6 C0.68 6.33 -0.64 6.66 -2 7 C-2.99 5.68 -3.98 4.36 -5 3 C-2.25 0 -2.25 0 0 0 Z " fill="#516155" transform="translate(357,370)"/>
<path d="M0 0 C2.31 0 4.62 0 7 0 C7.33 0.99 7.66 1.98 8 3 C7.34 3.66 6.68 4.32 6 5 C3.98079663 3.69593116 1.98075027 2.36176581 0 1 C0 0.67 0 0.34 0 0 Z " fill="#556354" transform="translate(413,290)"/>
<path d="M0 0 C0.33 0.66 0.66 1.32 1 2 C1.99 2.33 2.98 2.66 4 3 C4 3.99 4 4.98 4 6 C3.34 6 2.68 6 2 6 C1.67 7.32 1.34 8.64 1 10 C0.63883954 8.5225254 0.28624952 7.04295325 -0.0625 5.5625 C-0.25972656 4.73878906 -0.45695313 3.91507813 -0.66015625 3.06640625 C-0.82837891 2.04353516 -0.82837891 2.04353516 -1 1 C-0.67 0.67 -0.34 0.34 0 0 Z " fill="#E3E7DA" transform="translate(647,578)"/>
<path d="M0 0 C0.33 0 0.66 0 1 0 C1 2.31 1 4.62 1 7 C-0.32 7.33 -1.64 7.66 -3 8 C-3 6.68 -3 5.36 -3 4 C-2.34 3.67 -1.68 3.34 -1 3 C-0.67 2.01 -0.34 1.02 0 0 Z " fill="#F1F1E9" transform="translate(606,413)"/>
<path d="M0 0 C1.32 0 2.64 0 4 0 C4.625 2.375 4.625 2.375 5 5 C4.34 5.66 3.68 6.32 3 7 C0 3.375 0 3.375 0 0 Z " fill="#455448" transform="translate(561,397)"/>
<path d="M0 0 C0.99 0.99 1.98 1.98 3 3 C2.34 5.31 1.68 7.62 1 10 C-0.85064319 6.87703962 -1.29356154 4.62059232 -1 1 C-0.67 0.67 -0.34 0.34 0 0 Z " fill="#F5F8EC" transform="translate(628,300)"/>
<path d="M0 0 C0.33 0 0.66 0 1 0 C1.29296875 6.0546875 1.29296875 6.0546875 1 8 C0.01 8.66 -0.98 9.32 -2 10 C-3.04449911 6.86650268 -2.93423645 6.01031744 -2 3 C-1.34 3 -0.68 3 0 3 C0 2.01 0 1.02 0 0 Z " fill="#F5F8EB" transform="translate(540,296)"/>
<path d="M0 0 C1.32 0.33 2.64 0.66 4 1 C3.67 3.31 3.34 5.62 3 8 C0.37613513 4.93882432 0 4.26826873 0 0 Z " fill="#F1F2E6" transform="translate(602,298)"/>
<path d="M0 0 C-1 3 -1 3 -4.0625 4.6875 C-5.031875 5.120625 -6.00125 5.55375 -7 6 C-7.33 5.01 -7.66 4.02 -8 3 C-2.25 0 -2.25 0 0 0 Z " fill="#F1F4E9" transform="translate(255,266)"/>
<path d="M0 0 C0.99 0.33 1.98 0.66 3 1 C1.60667426 4.36720387 0.0210714 5.9859524 -3 8 C-2.37240135 5.07120629 -1.41377341 2.63904371 0 0 Z " fill="#F5F6F0" transform="translate(571,234)"/>
<path d="M0 0 C0.66 0.33 1.32 0.66 2 1 C0.47793991 3.62901288 -0.84365964 5.84365964 -3 8 C-3.75 6.25 -3.75 6.25 -4 4 C-2.0625 1.75 -2.0625 1.75 0 0 Z " fill="#F6F8ED" transform="translate(607,478)"/>
<path d="M0 0 C1.2077558 3.62326739 0.54311128 4.64146369 -1 8 C-1.66 8 -2.32 8 -3 8 C-2.74438677 5.6568787 -2.40729228 3.32156597 -2 1 C-1.34 0.67 -0.68 0.34 0 0 Z " fill="#F6F8EA" transform="translate(622,436)"/>
<path d="M0 0 C0.66 0.33 1.32 0.66 2 1 C2 3.64 2 6.28 2 9 C1.01 9.495 1.01 9.495 0 10 C-1.36952673 7.26094655 -1.12621361 5.02912668 -1 2 C-0.67 1.34 -0.34 0.68 0 0 Z " fill="#F4F4E7" transform="translate(398,410)"/>
<path d="M0 0 C2 3 2 3 1.625 5.1875 C1.41875 5.785625 1.2125 6.38375 1 7 C0.01 7 -0.98 7 -2 7 C-1.125 1.125 -1.125 1.125 0 0 Z " fill="#F1F3E5" transform="translate(621,372)"/>
<path d="M0 0 C2.05825864 4.11651727 2.34008135 4.86808251 1 9 C0.01 9.495 0.01 9.495 -1 10 C-0.67 6.7 -0.34 3.4 0 0 Z " fill="#EFF0E5" transform="translate(627,292)"/>
<path d="M0 0 C0.99 0.33 1.98 0.66 3 1 C2 3 2 3 -0.375 4.1875 C-3 5 -3 5 -6 4 C-3.1875 1.9375 -3.1875 1.9375 0 0 Z " fill="#465146" transform="translate(172,290)"/>
<path d="M0 0 C2 3 2 3 2 5 C0.02 5.33 -1.96 5.66 -4 6 C-2.84826645 3.53199953 -1.95216435 1.95216435 0 0 Z " fill="#576555" transform="translate(549,282)"/>
<path d="M0 0 C0.66 0 1.32 0 2 0 C1.49396008 2.16874252 1.00016187 3.99967627 0 6 C-0.99 5.67 -1.98 5.34 -3 5 C-1.125 1.125 -1.125 1.125 0 0 Z " fill="#F1F0E5" transform="translate(559,252)"/>
<path d="M0 0 C0.99 0.33 1.98 0.66 3 1 C1.875 2.5625 1.875 2.5625 0 4 C-3.1875 3.6875 -3.1875 3.6875 -6 3 C-3.375 0 -3.375 0 0 0 Z " fill="#F3F3E8" transform="translate(263,233)"/>
<path d="M0 0 C-5.41538462 3.07692308 -5.41538462 3.07692308 -8.375 2.6875 C-9.179375 2.3471875 -9.179375 2.3471875 -10 2 C-7.20652751 -0.79347249 -3.65536205 -1.82768103 0 0 Z " fill="#454E43" transform="translate(626,468)"/>
<path d="M0 0 C0.33 0 0.66 0 1 0 C1 1.65 1 3.3 1 5 C-0.65 5.33 -2.3 5.66 -4 6 C-2.84826645 3.53199953 -1.95216435 1.95216435 0 0 Z " fill="#F1F1E6" transform="translate(626,443)"/>
<path d="M0 0 C0.33 0.66 0.66 1.32 1 2 C-0.28062485 3.7074998 -1.61767557 5.37373596 -3 7 C-3.66 7 -4.32 7 -5 7 C-5 5.35 -5 3.7 -5 2 C-4.01 2 -3.02 2 -2 2 C-1.34 1.34 -0.68 0.68 0 0 Z " fill="#435347" transform="translate(256,393)"/>
<path d="M0 0 C0.33 0.66 0.66 1.32 1 2 C1.66 2 2.32 2 3 2 C2.34 5.3 1.68 8.6 1 12 C0.67 12 0.34 12 0 12 C0 8.04 0 4.08 0 0 Z " fill="#EFF6E6" transform="translate(690,361)"/>
<path d="M0 0 C1.1875 1.625 1.1875 1.625 2 4 C0.625 7.25 0.625 7.25 -1 10 C-1.66 9.34 -2.32 8.68 -3 8 C-2.09456151 5.28368454 -1.07525194 2.65228812 0 0 Z " fill="#576457" transform="translate(549,364)"/>
<path d="M0 0 C1.32 0 2.64 0 4 0 C4 0.66 4 1.32 4 2 C3.34 2 2.68 2 2 2 C2 2.66 2 3.32 2 4 C-0.31 3.34 -2.62 2.68 -5 2 C-4.360625 1.855625 -3.72125 1.71125 -3.0625 1.5625 C-1.02454854 1.18992819 -1.02454854 1.18992819 0 0 Z " fill="#516255" transform="translate(339,363)"/>
<path d="M0 0 C-0.33 0.66 -0.66 1.32 -1 2 C-3.64860427 2.59355614 -6.29197322 2.74209269 -9 3 C-9.33 2.34 -9.66 1.68 -10 1 C-6.78548731 -0.60725635 -3.56387464 -0.05748185 0 0 Z " fill="#F7F8F0" transform="translate(308,362)"/>
<path d="M0 0 C1.98 0.99 1.98 0.99 4 2 C4 2.66 4 3.32 4 4 C3.01 4.495 3.01 4.495 2 5 C1.34444881 7.52733235 1.34444881 7.52733235 1 10 C0.67 10 0.34 10 0 10 C0 6.7 0 3.4 0 0 Z " fill="#3C4E42" transform="translate(609,331)"/>
<path d="M0 0 C2.35953094 2.35953094 2.49141413 3.77895617 3 7 C2.01 7 1.02 7 0 7 C-0.38133299 5.0085944 -0.71325582 3.00720923 -1 1 C-0.67 0.67 -0.34 0.34 0 0 Z " fill="#F4F5EB" transform="translate(620,273)"/>
<path d="M0 0 C0.598125 0.20625 1.19625 0.4125 1.8125 0.625 C-0.36174117 3.12537734 -1.91795798 4.06128586 -5.1875 4.625 C-5.1875 3.635 -5.1875 2.645 -5.1875 1.625 C-2.1875 -0.375 -2.1875 -0.375 0 0 Z " fill="#465443" transform="translate(213.1875,267.375)"/>
<path d="M0 0 C3.73487777 0.4979837 5.81237635 0.87491756 9 3 C9 3.66 9 4.32 9 5 C6.03 4.505 6.03 4.505 3 4 C3 3.34 3 2.68 3 2 C2.01 1.34 1.02 0.68 0 0 Z " fill="#445143" transform="translate(374,246)"/>
<path d="M0 0 C-1 3 -1 3 -3.375 4.75 C-6 6 -6 6 -9 5 C-7.87926138 4.16094435 -6.75325453 3.32892169 -5.625 2.5 C-4.99851562 2.0359375 -4.37203125 1.571875 -3.7265625 1.09375 C-2 0 -2 0 0 0 Z " fill="#475346" transform="translate(646,455)"/>
<path d="M0 0 C0.99 0 1.98 0 3 0 C2.25 5.75 2.25 5.75 0 8 C-1.09658936 4.71023192 -0.79953138 3.28696233 0 0 Z " fill="#F7F9EC" transform="translate(601,424)"/>
<path d="M0 0 C0.99 0.33 1.98 0.66 3 1 C2.67 2.98 2.34 4.96 2 7 C1.34 7 0.68 7 0 7 C-0.93423645 3.98968256 -1.04449911 3.13349732 0 0 Z " fill="#F5F4E9" transform="translate(665,392)"/>
<path d="M0 0 C2.50037734 2.17424117 3.43628586 3.73045798 4 7 C3.34 7 2.68 7 2 7 C2 6.34 2 5.68 2 5 C1.01 4.67 0.02 4.34 -1 4 C-0.67 2.68 -0.34 1.36 0 0 Z " fill="#536153" transform="translate(386,384)"/>
<path d="M0 0 C0.6875 1.6875 0.6875 1.6875 1 4 C-0.4375 6.75 -0.4375 6.75 -2 9 C-2.6875 7.3125 -2.6875 7.3125 -3 5 C-1.5625 2.25 -1.5625 2.25 0 0 Z " fill="#EEF5EC" transform="translate(596,375)"/>
<path d="M0 0 C2.125 0.9375 2.125 0.9375 4 2 C1.35261084 3.4606285 0.10551666 4 -3 4 C-2.67 3.01 -2.34 2.02 -2 1 C-1.34 0.67 -0.68 0.34 0 0 Z " fill="#EEF0E6" transform="translate(277,372)"/>
<path d="M0 0 C1.98 0.66 3.96 1.32 6 2 C6 5 6 5 5 7 C3.29115995 5.37660195 1.62553283 3.70680947 0 2 C0 1.34 0 0.68 0 0 Z " fill="#E1E7DA" transform="translate(338,366)"/>
<path d="M0 0 C2.1875 0.3125 2.1875 0.3125 4 1 C2.75 2.5625 2.75 2.5625 1 4 C-1.1875 3.6875 -1.1875 3.6875 -3 3 C-1.75 1.4375 -1.75 1.4375 0 0 Z " fill="#F1F1E6" transform="translate(660,360)"/>
<path d="M0 0 C1.65 0 3.3 0 5 0 C5 3 5 3 4 5 C2.68 4.34 1.36 3.68 0 3 C0 2.01 0 1.02 0 0 Z " fill="#F1F3E5" transform="translate(362,354)"/>
<path d="M0 0 C2.4375 0.8125 2.4375 0.8125 5 2 C5.33 2.99 5.66 3.98 6 5 C4.68 5 3.36 5 2 5 C2 4.34 2 3.68 2 3 C1.34 2.67 0.68 2.34 0 2 C0 1.34 0 0.68 0 0 Z " fill="#F4F6EB" transform="translate(409,289)"/>
<path d="M0 0 C1.32 0.33 2.64 0.66 4 1 C3.01 2.32 2.02 3.64 1 5 C0.01 4.67 -0.98 4.34 -2 4 C-1.34 2.68 -0.68 1.36 0 0 Z " fill="#EFF2E7" transform="translate(230,279)"/>
<path d="M0 0 C1.65 0 3.3 0 5 0 C5 0.99 5 1.98 5 3 C3.35 3.66 1.7 4.32 0 5 C-0.33 4.01 -0.66 3.02 -1 2 C-0.67 1.34 -0.34 0.68 0 0 Z " fill="#4F6155" transform="translate(394,258)"/>
<path d="M0 0 C-1.24976756 3.65316671 -1.67098753 4.78065836 -5 7 C-5 5.02 -5 3.04 -5 1 C-2 0 -2 0 0 0 Z " fill="#444F43" transform="translate(582,257)"/>
<path d="M0 0 C-1.32 1.32 -2.64 2.64 -4 4 C-4.99 3.67 -5.98 3.34 -7 3 C-7 2.34 -7 1.68 -7 1 C-4.53721199 -0.231394 -2.7204945 -0.07159196 0 0 Z " fill="#F1F2EA" transform="translate(310,208)"/>
</svg>
